<?xml version="1.0" encoding="utf-8"?>
<!-- Generator: Adobe Illustrator 26.3.1, SVG Export Plug-In . SVG Version: 6.00 Build 0)  -->
<svg version="1.1" xmlns="http://www.w3.org/2000/svg" xmlns:xlink="http://www.w3.org/1999/xlink" x="0px" y="0px"
	 viewBox="0 0 556.7 445.1" style="enable-background:new 0 0 556.7 445.1;" xml:space="preserve">
<style type="text/css">
	.st0{fill:#E0E0E0;}
	.st1{fill:#EBEBEB;}
	.st2{fill:#F5F5F5;}
	.st3{display:none;}
	.st4{display:inline;fill:#EBEBEB;}
	.st5{fill:#0B70DB;}
	.st6{fill:#263238;}
	.st7{fill:#455A64;}
	.st8{fill:#FAFAFA;}
	.st9{fill:#FFBE9D;}
	.st10{fill:#EB996E;}
	.st11{opacity:0.6;}
	.st12{fill:#FFFFFF;}
	.st13{opacity:0.3;}
	.st14{opacity:0.7;fill:#FFFFFF;}
</style>
<g id="Background_Complete">
	<g>
		<g>
			<g>
				<polygon class="st0" points="265.9,349.1 244.7,444.1 253.6,444.1 274.9,350 				"/>
			</g>
		</g>
		<g>
			<g>
				<polygon class="st0" points="304.5,349.1 325.8,444.1 334.3,444.1 313.7,349.1 				"/>
			</g>
		</g>
		<g>
			<g>
				<polygon class="st0" points="251.5,277.7 263.6,343.1 277.3,343.1 264.4,277.7 				"/>
			</g>
		</g>
		<g>
			<g>
				<polygon class="st0" points="41.4,349.1 24.2,444.1 33,444.1 51,349.1 				"/>
			</g>
		</g>
		<g>
			<g>
				<polygon class="st0" points="77.8,349.1 97.5,443.6 106.2,443.6 87.2,349.1 				"/>
			</g>
		</g>
		<g>
			<g>
				<polygon class="st0" points="27.1,277.7 39.2,343.1 52.9,343.1 40,277.7 				"/>
			</g>
		</g>
		<g>
			<g>
				<polygon class="st1" points="0,271.8 2.5,283.7 277.7,283.7 274.5,271.8 				"/>
			</g>
		</g>
		<g>
			<g>
				<polygon class="st1" points="5.3,294.9 8.2,306.8 281.6,306.8 279.1,294.9 				"/>
			</g>
		</g>
		<g>
			<g>
				<polygon class="st1" points="10.7,318.8 13.4,330.7 286,330.7 283.4,318.8 				"/>
			</g>
		</g>
		<g>
			<g>
				<rect x="31.5" y="343.1" class="st1" width="293.9" height="11.9"/>
			</g>
		</g>
	</g>
	<g>
		<path class="st2" d="M209.2,43.7c0.7-3.6-4.3-6.9-8.1-7.5c-1.8-0.3-3.8-0.1-5.5-0.8c-3.7-1.5-4.9-6.5-8.6-8.3
			c-2.7-1.3-5.9-0.5-8.7,0.7c-2.8,1.2-5.5,2.7-8.5,2.8c-2.6,0-5.4-1.1-7.7,0c-1.8,0.8-2.8,2.8-4.4,3.8c-1.6,1-3.6,1.2-5.5,1.2
			c-1.9,0-3.9-0.1-5.7,0.6c-1.8,0.7-3.3,2.4-3.1,4.3L209.2,43.7z"/>
	</g>
	<g>
		<path class="st2" d="M86.1,161.1c0.5-3.7-4.7-6.7-8.5-7c-1.9-0.1-3.8,0.1-5.5-0.5c-3.8-1.3-5.3-6.2-9-7.8c-2.8-1.2-6-0.1-8.6,1.2
			c-2.7,1.4-5.3,3.1-8.3,3.2c-2.6,0.2-5.4-0.8-7.7,0.5c-1.7,1-2.6,2.9-4.2,4.1c-1.5,1.1-3.5,1.4-5.4,1.5c-1.9,0.1-3.9,0.1-5.6,0.9
			c-1.7,0.8-3.2,2.6-2.8,4.5L86.1,161.1z"/>
	</g>
	<g>
		<path class="st1" d="M196.5,98.2c0.7-5.4-6.8-9.8-12.5-10.2c-2.7-0.2-5.5,0.2-8.1-0.7c-5.6-1.9-7.8-9.1-13.2-11.4
			c-4.1-1.7-8.7-0.2-12.6,1.8c-3.9,2-7.8,4.5-12.2,4.7c-3.8,0.2-8-1.2-11.3,0.7c-2.5,1.4-3.8,4.3-6.1,5.9c-2.2,1.7-5.2,2-8,2.2
			c-2.8,0.2-5.7,0.2-8.2,1.3c-2.5,1.2-4.6,3.8-4.1,6.6L196.5,98.2z"/>
	</g>
</g>
<g id="Background_Simple" class="st3">
	<path class="st4" d="M547.7,102l-1.9-4.2c-16-35.7-49.8-60.2-88.5-62.5c-5-0.3-10-0.3-14.9,0.2C406.6,38.5,373,61,356.2,93.2
		c-9.9,18.9-14.8,41.5-30.8,55.5c-20.8,18.2-51.9,15-79.1,10.7c-27.1-4.3-58.3-7.4-79,10.9c-13,11.5-18.9,29.4-20.1,46.7
		c-3.3,46,23.5,90.9,61.4,116.3c38,25.4,85.5,33.2,130.9,29.8c63.7-4.8,127.1-31.8,169.2-80.4C550.9,234.1,569,162.8,547.7,102z"/>
	
		<ellipse transform="matrix(0.1653 -0.9862 0.9862 0.1653 -45.9128 191.3907)" class="st4" cx="90.1" cy="122.8" rx="50.2" ry="50.2"/>
</g>
<g id="Plant">
	<g>
		<g>
			<path class="st5" d="M50.9,394.5c2.3,0.9,4.1,2.9,5.1,5.2c1,2.3,1.2,4.8,1,7.3c-0.3,4.8-2.7,9.8-5.5,13.8
				c-4.2-3.3-5.5-9.4-5.9-12.5C44.9,403.3,46.7,394,50.9,394.5"/>
		</g>
	</g>
	<g>
		<g>
			<path class="st5" d="M56.7,428.4c-0.8-2.7,0.2-5.7,2.1-7.7s4.8-2.9,7.6-2.8c1.3,0,2.7,0.3,3.5,1.3c0.7,0.9,0.7,2.3,0.2,3.4
				c-0.5,1.1-1.4,1.9-2.4,2.6C64.4,427.7,60.7,429.4,56.7,428.4"/>
		</g>
	</g>
	<g>
		<g>
			<g>
				<path class="st6" d="M52.3,443.4c0,0,0-0.4,0.1-1c0.1-0.7,0.2-1.6,0.3-2.7c0.3-2.2,0.7-5.5,2.3-8.6c1.5-3.2,3.8-5.6,5.7-6.8
					c1-0.6,1.8-1,2.4-1.2c0.3-0.1,0.5-0.2,0.7-0.2c0.2,0,0.2-0.1,0.3,0c0,0.1-1.4,0.4-3.2,1.7c-1.9,1.3-4.1,3.6-5.6,6.7
					c-1.5,3.1-2,6.3-2.4,8.5c-0.2,1.1-0.3,2-0.5,2.7C52.4,443,52.3,443.4,52.3,443.4z"/>
			</g>
		</g>
	</g>
	<g>
		<g>
			<g>
				<path class="st6" d="M50.2,401.7c0,0,0,0.1,0.1,0.4c0,0.3,0.1,0.7,0.1,1.2c0.1,1.1,0.3,2.6,0.4,4.5c0.3,3.8,0.7,9.1,1,15
					c0.3,5.9,0.4,11.2,0.5,15c0,1.9,0,3.5,0,4.5c0,0.5,0,0.9,0,1.2c0,0.3,0,0.4,0,0.4c0,0,0-0.1,0-0.4c0-0.3,0-0.7,0-1.2
					c0-1.1-0.1-2.7-0.1-4.5c-0.1-3.8-0.3-9.1-0.6-15c-0.3-5.8-0.6-11.1-0.9-15c-0.1-1.9-0.2-3.4-0.3-4.5c0-0.5-0.1-0.9-0.1-1.2
					C50.2,401.9,50.2,401.7,50.2,401.7z"/>
			</g>
		</g>
	</g>
	<g>
		<g>
			<path class="st5" d="M49.9,431.7c-1.2-5.7-5.4-10.8-10.8-13c-1.4-0.6-3.2-0.9-4.2,0.2c-1.1,1.1-0.7,2.8-0.1,4.2
				c2.6,5.7,8.8,9.4,15.1,9"/>
		</g>
	</g>
	<g>
		<g>
			<g>
				<path class="st6" d="M39.9,423.2c0,0,0.3,0.1,0.9,0.3c0.3,0.1,0.6,0.3,1,0.5c0.4,0.2,0.8,0.4,1.3,0.7c0.5,0.3,1,0.6,1.5,1
					c0.5,0.4,1,0.8,1.6,1.3c1,1,2.1,2.1,3,3.5c0.9,1.4,1.6,2.8,2.1,4.1c0.2,0.7,0.4,1.3,0.6,1.9c0.2,0.6,0.3,1.2,0.3,1.7
					c0.1,0.5,0.1,1,0.1,1.4c0,0.4,0,0.8,0,1.1c0,0.6,0,0.9-0.1,0.9c-0.1,0,0-1.3-0.4-3.4c-0.1-0.5-0.2-1.1-0.4-1.7
					c-0.1-0.6-0.4-1.2-0.6-1.9c-0.5-1.3-1.2-2.7-2.1-4.1c-0.9-1.3-2-2.5-3-3.5c-0.5-0.5-1-0.9-1.5-1.3c-0.5-0.4-1-0.7-1.4-1
					C41.1,423.8,39.9,423.3,39.9,423.2z"/>
			</g>
		</g>
	</g>
</g>
<g id="Device">
	<g>
		<g>
			<path class="st6" d="M427.4,443.8H282c-11.6,0-20.9-9.4-20.9-20.9V20.9C261.1,9.4,270.5,0,282,0h145.3c11.6,0,20.9,9.4,20.9,20.9
				v401.9C448.3,434.4,438.9,443.8,427.4,443.8z"/>
			<path class="st7" d="M410.6,443.9h-142c-12.5,0-22.6-10.1-22.6-22.6V22.7c0-12.5,10.1-22.6,22.6-22.6h142
				c12.5,0,22.6,10.1,22.6,22.6v398.7C433.1,433.9,423,443.9,410.6,443.9z"/>
			<g>
				<g>
					<g>
						<g>
							<path class="st8" d="M404.9,7.3l-25.4,0c-3.4,0-6.2,3.4-6.2,7.6l0,5.5c0,4.2-2.8,7.6-6.2,7.6l-49.6-0.1
								c-3.4,0-6.2-3.4-6.2-7.7l0-5.5c0-4.2-2.8-7.7-6.2-7.7l-8.9,0l-22.3,0c-11.1,0-20,10.6-20,23.7l0.2,380.2
								c0,13.1,9,23.7,20,23.7l130.9,0.2c11.1,0,20-10.6,20-23.7L424.9,31C424.9,17.9,416,7.3,404.9,7.3z"/>
						</g>
					</g>
				</g>
			</g>
		</g>
		<g>
			<g>
				<g>
					<polygon class="st2" points="367,317.7 391.7,326.8 391.7,322.6 367,313.6 					"/>
				</g>
				<g>
					<polygon class="st1" points="392.3,313.6 367,323.4 367,327.8 392.3,317.3 					"/>
				</g>
				<g>
					<polygon class="st2" points="392.2,317.7 416.9,326.8 416.9,322.6 392.2,313.6 					"/>
				</g>
				<g>
					<polygon class="st1" points="417.6,313.6 392.2,323.4 392.2,327.8 417.6,317.3 					"/>
				</g>
				<g>
					<polygon class="st2" points="339.4,317.7 364.2,326.8 364.2,322.6 339.4,313.6 					"/>
				</g>
				<g>
					<polygon class="st1" points="364.8,313.6 339.4,323.4 339.4,327.8 364.8,317.3 					"/>
				</g>
				<g>
					<polygon class="st1" points="355.9,269.4 361.5,304.9 415,304.9 415,270.3 424.4,270.3 424.4,266.5 338.8,262.2 338.8,266.7 
											"/>
				</g>
				<g>
					<polygon class="st0" points="278.9,331.3 329.7,311.9 420.4,311.9 420.4,304.9 328.9,304.9 262.9,331.3 					"/>
				</g>
				<g>
					<rect x="338" y="311.9" class="st0" width="3.9" height="18.4"/>
				</g>
				<g>
					<rect x="364.2" y="311.9" class="st0" width="3.9" height="18.4"/>
				</g>
				<g>
					<rect x="390.3" y="311.9" class="st0" width="3.9" height="18.4"/>
				</g>
				<g>
					<rect x="415.9" y="311.9" class="st0" width="3.9" height="18.4"/>
				</g>
				<g>
					<rect x="362.2" y="272.1" class="st2" width="15.3" height="18.2"/>
				</g>
				<g>
					<rect x="380.3" y="272.4" class="st2" width="15.3" height="18.2"/>
				</g>
				<g>
					<polygon class="st0" points="390.3,234.2 387.9,234.2 387.9,264.7 390.3,265.4 					"/>
				</g>
				<g>
					<path class="st1" d="M390.3,234.2c0,0,6.4-0.8,9.9,4c4.6,6.3,13.5,4.1,13.5,4.1v11.7c0,0-8.5,2.9-15,0
						c-4.1-1.9-4.8-6.5-8.4-5.1V234.2z"/>
				</g>
				<g>
					<rect x="335.9" y="290.3" class="st0" width="1.5" height="16.3"/>
				</g>
				<g>
					
						<rect x="314.7" y="295.4" transform="matrix(0.9345 -0.3561 0.3561 0.9345 -87.3866 132.2046)" class="st0" width="1.5" height="16.3"/>
				</g>
				<g>
					
						<rect x="296.1" y="302.5" transform="matrix(0.9345 -0.356 0.356 0.9345 -91.3057 126.059)" class="st0" width="1.5" height="17.2"/>
				</g>
				<g>
					
						<rect x="277.6" y="309.9" transform="matrix(0.9345 -0.356 0.356 0.9345 -95.2835 119.9814)" class="st0" width="1.5" height="18"/>
				</g>
				<g>
					<rect x="351.1" y="290.3" class="st0" width="1.5" height="16.3"/>
				</g>
				<g>
					<rect x="366.3" y="290.3" class="st0" width="1.5" height="16.3"/>
				</g>
				<g>
					<rect x="381.5" y="290.3" class="st0" width="1.5" height="16.3"/>
				</g>
				<g>
					<rect x="396.8" y="290.3" class="st0" width="1.5" height="16.3"/>
				</g>
				<g>
					<polygon class="st0" points="256.5,318.1 324.1,291.7 399.7,291.7 399.7,289.4 324.1,289.4 255.5,316.4 					"/>
				</g>
				<g>
					<rect x="399.7" y="272.4" class="st2" width="12" height="32.6"/>
				</g>
			</g>
			<g>
				<path class="st0" d="M419.5,333.4c0,0.1-22.1,0.3-49.3,0.3c-27.2,0-49.3-0.1-49.3-0.3c0-0.1,22.1-0.3,49.3-0.3
					C397.5,333.2,419.5,333.3,419.5,333.4z"/>
			</g>
		</g>
		<path class="st9" d="M305.5,312.4"/>
		<g>
			<path class="st6" d="M424.6,356.2c0,0,0,0.2,0,0.5c0,0.2,0,0.4-0.1,0.6c0,0.1-0.1,0.2-0.1,0.4c-0.1,0.1-0.1,0.3-0.2,0.4
				c-0.3,0.6-0.9,1.2-1.7,1.6c-0.8,0.5-1.9,0.8-3.1,0.9c-1.2,0.1-2.6,0-4-0.6c-1.4-0.5-2.7-1.5-4.1-2.5c-1.4-1-2.8-2.2-4.5-3.1
				c-0.9-0.4-1.8-0.8-2.8-1c-0.5-0.1-1-0.1-1.5-0.1l-0.8,0l-0.8,0.1c-2.1,0.4-4.1,1.6-6,2.9c-1.9,1.4-3.8,3-6,4.3
				c-1.1,0.6-2.3,1.2-3.6,1.6c-1.3,0.3-2.7,0.4-4.1,0c-2.8-0.7-4.9-2.6-7.2-4.4c-1.1-0.9-2.3-1.8-3.5-2.4c-0.3-0.2-0.6-0.3-1-0.4
				c-0.3-0.1-0.7-0.3-1-0.3c-0.2,0-0.3-0.1-0.5-0.1l-0.5-0.1c-0.4,0-0.7-0.1-1.1-0.1c-1.5,0.1-2.9,0.4-4.3,1c-1.4,0.6-2.7,1.4-4,2.3
				c-2.6,1.7-5.1,3.7-8,5.1c-1.5,0.7-3.1,1.1-4.8,1.1l-1.3-0.1c-0.4,0-0.8-0.2-1.2-0.3c-0.4-0.1-0.8-0.3-1.2-0.5
				c-0.4-0.2-0.8-0.4-1.1-0.6c-2.9-1.7-5.1-4.2-7.9-5.7c-1.4-0.7-3-1.1-4.5-0.9c-1.5,0.2-2.9,0.9-4.2,1.7c-1.3,0.8-2.6,1.7-3.9,2.5
				c-1.4,0.7-2.8,1.3-4.4,1.4c-1.5,0.1-3.1-0.2-4.5-0.7c-1.4-0.5-2.7-1.2-4-1.8c-2.5-1.4-4.9-2.8-7.5-3.6c-1.3-0.4-2.6-0.6-3.9-0.5
				c-1.3,0.1-2.5,0.4-3.7,1c-2.3,1.1-4.2,2.6-6.2,3.9c-1.9,1.3-3.9,2.6-6.1,3.1l-0.8,0.2l-0.8,0.1c-0.3,0-0.5,0-0.8,0
				c-0.3,0-0.5,0-0.8-0.1c-1-0.1-2-0.4-2.9-0.8c-1.8-0.8-3.3-1.8-4.8-2.8c-1.4-0.9-2.7-1.9-4.1-2.5c-1.3-0.6-2.6-1-3.8-1.1
				c-2.4-0.3-4.3,0.2-5.3,1c-1,0.8-1.3,1.4-1.4,1.4c0,0,0.1-0.1,0.3-0.4c0.1-0.1,0.2-0.3,0.4-0.5c0.2-0.2,0.4-0.4,0.6-0.6
				c1-0.8,2.9-1.4,5.4-1.1c1.2,0.2,2.5,0.5,3.9,1.1c1.4,0.6,2.7,1.5,4.1,2.5c1.4,0.9,3,2,4.7,2.7c0.9,0.4,1.8,0.7,2.8,0.8
				c0.2,0,0.5,0.1,0.8,0.1c0.3,0,0.5,0,0.8,0l0.8-0.1l0.8-0.2c2.1-0.5,4-1.7,5.9-3.1c1.9-1.4,3.9-2.9,6.2-4c1.2-0.5,2.5-0.9,3.8-1
				c1.3-0.1,2.7,0.1,4,0.5c2.6,0.8,5.1,2.3,7.6,3.6c1.3,0.7,2.5,1.3,3.9,1.8c1.4,0.5,2.8,0.7,4.3,0.6c1.5-0.1,2.9-0.6,4.2-1.4
				c1.3-0.7,2.6-1.6,3.9-2.5c1.3-0.8,2.8-1.6,4.4-1.8c1.6-0.2,3.3,0.2,4.8,0.9c2.9,1.5,5.2,4,8,5.7c0.3,0.2,0.7,0.4,1.1,0.6
				c0.4,0.2,0.7,0.3,1.1,0.4c0.4,0.1,0.8,0.2,1.2,0.3l1.2,0.1c1.6,0,3.1-0.4,4.6-1c2.9-1.3,5.4-3.3,8-5c1.3-0.9,2.6-1.7,4-2.3
				c1.4-0.6,2.9-1,4.5-1.1c0.4,0,0.8,0.1,1.1,0.1l0.6,0.1c0.2,0,0.4,0.1,0.6,0.1c0.4,0.1,0.7,0.2,1.1,0.4c0.4,0.1,0.7,0.3,1,0.5
				c1.3,0.7,2.5,1.6,3.6,2.5c2.2,1.8,4.4,3.7,7,4.3c1.3,0.3,2.6,0.2,3.9,0c1.2-0.3,2.4-0.9,3.5-1.5c2.2-1.3,4-2.9,6-4.3
				c1.9-1.4,3.9-2.6,6.1-3l0.8-0.1l0.8,0c0.5,0,1.1,0,1.6,0.1c1,0.2,2,0.6,2.9,1c1.7,0.9,3.2,2.1,4.6,3.1c1.4,1,2.7,2,4,2.5
				c1.4,0.5,2.7,0.7,3.9,0.6c2.4-0.1,4.2-1.2,4.7-2.4c0.1-0.1,0.1-0.3,0.2-0.4c0-0.1,0.1-0.3,0.1-0.4c0.1-0.2,0.1-0.4,0.1-0.6
				C424.6,356.3,424.6,356.2,424.6,356.2z"/>
		</g>
		<g>
			<g>
				<g>
					<g>
						<path class="st6" d="M385.9,141.9c0,0,26.1,122.6,1.9,219.3l0,0c-2.9,2.3-7,2.3-9.9,0.1l-7.3-5.4c-2.7-1.7-6.1-1.8-8.9-0.3
							l-3.3,1.8c0,0,23.4-96.7,20.9-156.8c-2.5-60.1-2.5-60.1-2.5-60.1L385.9,141.9z"/>
					</g>
					<g>
						<g>
							<path class="st7" d="M311.9,157.8c5-13.5,16.8-24.6,30.9-27.3c14.1-2.7,30,4.1,36.5,17l-1.4,0.4c-10.7,6.9-23.3,10.8-36,11.2
								c0.8-1.8,1.7-3.7,2.5-5.5C334.2,158,322.8,159.5,311.9,157.8z"/>
							<path class="st7" d="M425.1,121.5c-9.5-1.6-19.6,0-27.7,5.1c-8.1,5.2-13.9,14.2-14.3,23.8l2.7-3.2c14,3.6,26.1,3.1,39.3-2.8
								L425.1,121.5z"/>
							<path class="st7" d="M425,180.6c-2.7-2.3-3.4-6.4-3-10c-1.3,2.7-2.1,5.7-2.4,8.7c-11-7.7-22-15.3-33-23
								c-3.1-2.2-4.3-3.1-7.3-4.1l4.6-6c10.7-5.7,23.4-2.4,34.2,3l7,3.9L425,180.6z"/>
							<path class="st7" d="M344.8,173c2.6-5.2,6.9-9.3,11.4-13.1c3.5-3,7.1-5.9,11.3-7.8c4.2-1.9,9-2.8,13.5-1.4L380,151
								c3.6,14.2-6.3,30.7-17,40.8c-1.9-0.5-3.6-1.8-4.7-3.5c1.3,2,2.6,4.1,3.9,6.1c-4.6,4.9-9.5,9.4-14.8,13.5
								c-2.2-5.6-4.3-11.3-5.1-17.3C341.7,184.7,342.1,178.4,344.8,173z"/>
							<path class="st7" d="M371.7,149.2l6.8-0.8c12.9,2.5,23.4,13.2,27.1,25.8c3.7,12.6,1.1,26.6-5.7,37.8
								c-4.9-5.5-9.8-11.1-13.7-17.4c-1.1-1.8-2.2-3.8-2.5-6c-0.2-1.7,0.2-3.6,1.2-4.9c-1.5,1.3-3.4,2.4-5.1,1.4
								c-0.7-0.4-1.2-1.2-1.7-1.9c-3.3-5.1-6.5-10.5-8-16.4C368.5,161,368.7,154.5,371.7,149.2z"/>
							<path class="st7" d="M372,113.4c2.6-11.9,9.8-22.7,19.7-29.8c0.8-0.6,1.8-1.2,2.8-0.8c0.8,0.3,1.2,1.1,1.6,1.8
								c5.2,10.5,6.8,22.7,4.5,34.2c-2.3,11.5-10.8,27.2-19.7,34.8l-5-3C369.9,139.8,369.4,125.3,372,113.4z"/>
						</g>
						<g>
							<path class="st6" d="M379.4,150.4c0,0,0.1,0,0.2,0c0.1,0,0.3,0,0.5,0.1c0.2,0,0.5,0.1,0.9,0.1c0.3,0,0.7,0.1,1.2,0.2
								c1.7,0.4,4.2,1.4,6.7,3.3c1.3,1,2.5,2.2,3.7,3.6c1.2,1.4,2.3,3.1,3.2,5c1.9,3.8,3.2,8.2,4.1,13c1.9,9.6,1.9,18.5,1.3,24.8
								c-0.3,3.2-0.6,5.7-0.9,7.5c-0.1,0.9-0.3,1.6-0.3,2c0,0.2-0.1,0.4-0.1,0.5c0,0.1,0,0.2,0,0.2c0,0,0-0.1,0.1-0.2
								c0-0.1,0.1-0.3,0.1-0.5c0.1-0.5,0.3-1.1,0.4-2c0.3-1.8,0.7-4.3,1-7.5c0.6-6.4,0.6-15.3-1.3-24.9c-0.9-4.8-2.2-9.3-4.1-13.1
								c-1-1.9-2.1-3.6-3.3-5c-1.2-1.4-2.5-2.7-3.8-3.6c-2.6-1.9-5.1-2.8-6.8-3.2C380.4,150.4,379.4,150.4,379.4,150.4z"/>
						</g>
						<g>
							<path class="st6" d="M377.9,147.8c0,0,0.2,0.1,0.5,0.1c0.4,0.1,0.9,0.2,1.5,0.3c1.3,0.3,3.2,0.9,5.5,1.9
								c1.1,0.5,2.3,1.1,3.5,1.9c1.2,0.8,2.5,1.6,3.7,2.7c2.5,2.1,4.9,4.7,6.9,7.8c2.1,3.1,3.7,6.3,4.9,9.3c0.6,1.5,1.1,3,1.4,4.4
								c0.3,1.4,0.6,2.7,0.7,3.9c0.3,2.4,0.2,4.4,0.1,5.8c0,0.7-0.2,1.2-0.2,1.6c0,0.4-0.1,0.5-0.1,0.6c0,0,0.1-0.2,0.1-0.5
								c0.1-0.4,0.2-0.9,0.3-1.6c0.2-1.4,0.3-3.4,0-5.8c-0.1-1.2-0.4-2.6-0.7-4c-0.4-1.4-0.8-2.9-1.4-4.4c-1.2-3-2.9-6.2-4.9-9.4
								c-2.1-3.1-4.5-5.8-7-7.9c-1.2-1.1-2.5-1.9-3.8-2.7c-1.2-0.7-2.4-1.4-3.6-1.9c-2.3-1-4.2-1.5-5.6-1.8
								c-0.7-0.2-1.2-0.2-1.6-0.3C378.1,147.8,377.9,147.8,377.9,147.8z"/>
						</g>
						<g>
							<path class="st6" d="M371.1,153.5c0,0-0.1,0.3-0.3,1c-0.1,0.3-0.2,0.7-0.3,1.2c-0.1,0.5-0.2,1-0.3,1.6
								c-0.1,0.6-0.2,1.2-0.2,1.9c-0.1,0.7,0,1.4,0,2.2c0,1.6,0.2,3.3,0.6,5.1c0.4,1.8,0.9,3.4,1.5,4.9c0.3,0.7,0.6,1.4,0.9,2
								c0.3,0.6,0.6,1.2,0.9,1.7c0.3,0.5,0.6,1,0.9,1.4c0.3,0.4,0.5,0.7,0.7,1c0.4,0.5,0.6,0.8,0.7,0.8c0,0-0.2-0.3-0.6-0.9
								c-0.2-0.3-0.4-0.6-0.7-1c-0.2-0.4-0.5-0.8-0.8-1.4c-0.3-0.5-0.6-1.1-0.9-1.7c-0.3-0.6-0.6-1.3-0.9-2
								c-0.5-1.5-1.1-3.1-1.4-4.9c-0.3-1.8-0.5-3.5-0.6-5c0-0.8,0-1.5,0-2.2c0-0.7,0.1-1.3,0.1-1.9c0-0.6,0.1-1.1,0.2-1.6
								c0.1-0.5,0.1-0.9,0.2-1.2C371,153.9,371.1,153.6,371.1,153.5z"/>
						</g>
						<g>
							<path class="st6" d="M348.6,206.8c0,0,0-0.1,0-0.2c0-0.1-0.1-0.3-0.1-0.4c-0.1-0.4-0.3-0.9-0.4-1.7c-0.3-1.4-0.7-3.6-1-6.2
								c-0.3-2.6-0.3-5.8,0.1-9.3c0.4-3.5,1.2-7.3,2.5-11c1.4-3.8,3.2-7.2,5.2-10.1c2-2.9,4.1-5.3,6-7.1c1.9-1.8,3.6-3.2,4.8-4.1
								c0.6-0.5,1.1-0.8,1.4-1c0.1-0.1,0.3-0.2,0.4-0.3c0.1-0.1,0.1-0.1,0.1-0.1c0,0,0,0-0.1,0.1c-0.1,0.1-0.2,0.1-0.4,0.2
								c-0.3,0.2-0.8,0.5-1.4,1c-1.2,0.8-2.9,2.2-4.8,4c-1.9,1.8-4.1,4.2-6.1,7.1c-2,2.9-3.9,6.3-5.3,10.1
								c-1.4,3.8-2.2,7.6-2.5,11.1c-0.3,3.5-0.3,6.7,0,9.3c0.3,2.6,0.7,4.8,1.1,6.2c0.2,0.7,0.4,1.3,0.5,1.6
								c0.1,0.2,0.1,0.3,0.1,0.4C348.6,206.7,348.6,206.8,348.6,206.8z"/>
						</g>
						<g>
							<path class="st6" d="M313.1,156.9c0,0,0,0,0.1-0.1c0.1-0.1,0.2-0.2,0.4-0.4c0.3-0.4,0.7-0.9,1.3-1.6c1.2-1.4,2.9-3.4,5.3-5.7
								c1.2-1.1,2.5-2.3,4-3.6c1.5-1.2,3.1-2.5,5-3.6c3.6-2.3,8-4.4,12.8-5.7c2.4-0.6,4.9-0.9,7.2-1c2.4-0.1,4.6,0.1,6.8,0.4
								c4.3,0.7,8,2,10.9,3.6c1.4,0.8,2.7,1.6,3.7,2.4c0.5,0.4,1,0.8,1.4,1.2c0.4,0.4,0.8,0.7,1.1,1.1c0.3,0.3,0.6,0.6,0.8,0.9
								c0.2,0.3,0.4,0.5,0.6,0.7c0.2,0.2,0.3,0.3,0.4,0.4c0.1,0.1,0.1,0.1,0.1,0.1c0,0,0-0.1-0.1-0.2c-0.1-0.1-0.2-0.3-0.3-0.4
								c-0.2-0.2-0.3-0.4-0.6-0.7c-0.2-0.3-0.5-0.6-0.8-0.9c-0.3-0.3-0.7-0.7-1.1-1.1c-0.4-0.4-0.9-0.8-1.4-1.2
								c-1-0.8-2.3-1.7-3.7-2.5c-2.9-1.7-6.6-3-10.9-3.7c-2.2-0.3-4.5-0.5-6.8-0.4c-2.4,0.1-4.8,0.4-7.3,1
								c-4.9,1.3-9.3,3.4-12.9,5.7c-1.8,1.2-3.5,2.4-5,3.6c-1.5,1.2-2.8,2.5-4,3.6c-2.3,2.3-4.1,4.3-5.2,5.8c-0.6,0.7-1,1.3-1.3,1.7
								c-0.1,0.2-0.2,0.3-0.3,0.4C313.1,156.8,313.1,156.9,313.1,156.9z"/>
						</g>
						<g>
							<path class="st6" d="M394.4,82.1c0,0,0,0-0.1,0.1c-0.1,0.1-0.2,0.3-0.3,0.4c-0.2,0.4-0.5,1-1,1.7c-0.4,0.7-0.9,1.6-1.4,2.7
								c-0.5,1.1-1.2,2.3-1.8,3.6c-0.3,0.7-0.7,1.4-1,2.1c-0.3,0.7-0.7,1.5-1,2.3c-0.7,1.6-1.4,3.4-2.1,5.2
								c-1.4,3.7-2.8,7.9-4.1,12.3c-1.2,4.4-2.1,8.7-2.9,12.6c-0.3,2-0.6,3.8-0.9,5.6c-0.1,0.9-0.2,1.7-0.3,2.5
								c-0.1,0.8-0.2,1.6-0.2,2.3c-0.2,1.5-0.2,2.9-0.3,4c-0.1,1.2-0.1,2.2-0.1,3.1c0,0.8,0,1.5-0.1,1.9c0,0.2,0,0.4,0,0.5
								c0,0.1,0,0.2,0,0.2c0,0,0-0.1,0-0.2c0-0.1,0-0.3,0-0.5c0-0.5,0.1-1.1,0.1-1.9c0-0.8,0.1-1.9,0.2-3.1c0.1-1.2,0.2-2.5,0.4-4
								c0.1-0.7,0.2-1.5,0.3-2.3c0.1-0.8,0.2-1.7,0.3-2.5c0.2-1.8,0.6-3.6,0.9-5.6c0.7-3.9,1.7-8.2,2.9-12.6c1.2-4.4,2.6-8.5,4-12.3
								c0.7-1.8,1.4-3.6,2.1-5.2c0.4-0.8,0.7-1.6,1-2.3c0.3-0.7,0.7-1.5,1-2.1c0.6-1.4,1.2-2.6,1.8-3.6c0.5-1.1,1-2,1.4-2.7
								c0.4-0.7,0.7-1.3,0.9-1.7c0.1-0.2,0.2-0.3,0.2-0.5C394.4,82.2,394.4,82.1,394.4,82.1z"/>
						</g>
						<g>
							<path class="st6" d="M403.4,123.9c0,0-0.1,0-0.3,0.1c-0.3,0.1-0.6,0.2-1,0.4c-0.8,0.4-2,0.9-3.5,1.6
								c-2.9,1.4-6.8,3.5-10.9,6.3c-2,1.4-3.9,2.7-5.5,4.2c-1.6,1.4-2.8,2.9-3.6,4.3c-0.8,1.4-1.2,2.7-1.3,3.6
								c-0.1,0.4-0.1,0.8-0.1,1c0,0.2,0,0.4,0,0.4c0,0,0-0.1,0.1-0.4c0-0.2,0.1-0.6,0.2-1c0.2-0.9,0.6-2.1,1.4-3.5
								c0.8-1.4,2.1-2.8,3.6-4.2c1.6-1.4,3.5-2.8,5.5-4.1c4.1-2.7,7.9-4.9,10.8-6.3c1.4-0.7,2.6-1.3,3.4-1.7
								c0.4-0.2,0.7-0.3,0.9-0.4C403.3,124,403.4,123.9,403.4,123.9z"/>
						</g>
						<g>
							<path class="st6" d="M357.4,159c0,0,0.3-0.2,0.7-0.5c0.4-0.4,1.1-0.9,1.9-1.5c1.6-1.2,3.8-2.9,6.5-4.5
								c2.6-1.6,5.1-2.9,6.9-3.8c0.9-0.4,1.6-0.8,2.2-1c0.5-0.2,0.8-0.4,0.8-0.4c0,0-0.3,0.1-0.8,0.3c-0.5,0.2-1.3,0.5-2.2,0.9
								c-1.8,0.8-4.4,2.1-7,3.7c-2.6,1.6-4.9,3.3-6.4,4.6c-0.8,0.6-1.4,1.2-1.8,1.6C357.6,158.8,357.4,159,357.4,159z"/>
						</g>
					</g>
				</g>
				<g>
					<path class="st6" d="M424.5,128.4c0,0-0.2,0-0.5,0c-0.4,0-0.9,0-1.5,0c-0.6,0-1.4,0-2.4,0c-0.9,0-2,0-3.1,0.1
						c-1.2,0.1-2.4,0.2-3.8,0.4c-1.4,0.1-2.8,0.4-4.3,0.7c-3,0.6-6.2,1.4-9.6,2.6c-3.3,1.2-6.4,2.6-9.1,4.1
						c-1.3,0.8-2.6,1.5-3.7,2.2c-1.2,0.7-2.2,1.4-3.1,2.1c-1,0.6-1.8,1.3-2.5,1.9c-0.7,0.6-1.3,1.1-1.8,1.5c-0.5,0.4-0.8,0.7-1.1,1
						c-0.3,0.2-0.4,0.3-0.4,0.3c0,0,2-2.1,5.7-4.9c0.9-0.7,2-1.4,3.1-2.2c1.1-0.8,2.4-1.5,3.7-2.2c2.7-1.5,5.8-2.9,9.1-4.1
						c3.3-1.2,6.6-2,9.6-2.6c1.5-0.3,2.9-0.5,4.3-0.6c1.4-0.2,2.6-0.3,3.8-0.3C421.6,128,424.5,128.4,424.5,128.4z"/>
				</g>
			</g>
			<g>
				<path class="st6" d="M425.9,153.5c0,0-0.2-0.1-0.4-0.2c-0.3-0.2-0.7-0.4-1.2-0.7c-0.5-0.3-1.2-0.7-2-1.1
					c-0.8-0.4-1.6-0.9-2.6-1.3c-1-0.5-2.1-1-3.3-1.4c-1.2-0.5-2.5-0.9-3.9-1.4c-2.8-0.8-5.9-1.6-9.2-2c-3.3-0.4-6.5-0.6-9.4-0.5
					c-1.4,0.1-2.8,0.1-4.1,0.3c-1.3,0.1-2.5,0.3-3.6,0.5c-1.1,0.1-2.1,0.4-2.9,0.5c-0.9,0.2-1.6,0.3-2.2,0.5c-0.5,0.1-1,0.3-1.4,0.3
					c-0.3,0.1-0.5,0.1-0.5,0.1c0,0,2.6-1,6.9-1.7c1.1-0.2,2.3-0.4,3.6-0.5c1.3-0.2,2.7-0.2,4.1-0.3c2.9-0.1,6.1,0.1,9.4,0.5
					c3.3,0.5,6.4,1.2,9.2,2.1c1.4,0.5,2.7,0.9,3.9,1.4c1.2,0.5,2.3,1,3.3,1.4C423.7,151.9,425.9,153.5,425.9,153.5z"/>
			</g>
			<g>
				<path class="st6" d="M420.2,164.8c0,0-0.1-0.1-0.3-0.3c-0.3-0.3-0.6-0.6-0.9-1c-0.4-0.4-0.9-0.9-1.5-1.5c-0.6-0.6-1.2-1.2-2-1.9
					c-0.8-0.7-1.6-1.4-2.6-2.1c-0.9-0.8-2-1.5-3.1-2.2c-2.3-1.5-4.8-3-7.7-4.3c-2.8-1.3-5.6-2.3-8.2-3c-1.3-0.3-2.5-0.7-3.7-0.9
					c-1.2-0.3-2.3-0.4-3.3-0.6c-1-0.2-1.9-0.2-2.7-0.3c-0.8-0.1-1.5-0.1-2.1-0.1c-0.5,0-1-0.1-1.3-0.1c-0.3,0-0.5,0-0.5,0
					c0,0,2.5-0.1,6.6,0.4c1,0.1,2.1,0.3,3.3,0.5c1.2,0.2,2.4,0.5,3.8,0.9c2.6,0.7,5.4,1.7,8.3,3c2.8,1.3,5.4,2.8,7.7,4.3
					c1.1,0.8,2.2,1.5,3.1,2.3c1,0.7,1.8,1.5,2.6,2.2C418.7,162.8,420.2,164.8,420.2,164.8z"/>
			</g>
		</g>
		<g>
			<g>
				<g>
					<g>
						<g>
							<path class="st6" d="M404.9,7.3c0,0,0.3,0,0.8,0c0.5,0,1.3,0,2.3,0.2c2,0.3,5,1.3,8.1,3.7c1.5,1.3,3.1,2.9,4.5,4.9
								c1.4,2,2.6,4.5,3.4,7.3c0.4,1.4,0.7,2.9,0.9,4.4c0.2,1.6,0.2,3.2,0.2,4.8c0,3.3,0,6.9,0,10.6c0,30.1,0.1,73.6,0.1,127.4
								c0,53.8,0.1,117.9,0.1,189c0,8.9,0,17.9,0,27c0,4.6,0,9.1,0,13.7c0,2.3,0,4.6,0,6.9c0,2.3,0.1,4.6-0.2,7
								c-0.2,2.3-0.8,4.6-1.7,6.8c-0.4,1.1-1,2.2-1.5,3.2c-0.6,1-1.2,2-2,2.9c-1.5,1.9-3.2,3.5-5.2,4.8c-2,1.3-4.3,2.2-6.7,2.6
								c-2.4,0.4-4.8,0.2-7.2,0.3c-2.4,0-4.8,0-7.2,0c-4.8,0-9.6,0-14.5,0c-19.4,0-39-0.1-59-0.1c-10,0-20.1,0-30.2,0
								c-5.1,0-10.2,0-15.3,0c-2.6,0-5.2-0.5-7.6-1.5c-2.4-1-4.5-2.6-6.3-4.5c-3.6-3.7-5.8-8.7-6.6-13.8c-0.4-2.6-0.3-5.1-0.3-7.7
								c0-2.5,0-5.1,0-7.6c0-10.1,0-20.2,0-30.2c0-20,0-39.7,0-59.1c0-38.7,0-76.1,0-111.6c0-35.6,0-69.4,0-101
								c0-15.8,0-31.1,0-45.8c0-7.3,0-14.5,0-21.6c0-3.5,0.7-7,2-10.2c1.3-3.2,3.2-6.1,5.8-8.4c2.5-2.3,5.5-4,8.8-4.6
								c0.8-0.1,1.6-0.3,2.5-0.3c0.8-0.1,1.6-0.1,2.4-0.1c1.6,0,3.2,0,4.8,0c6.4,0,12.6,0,18.7,0c1.5,0,3,0,4.5,0c0.8,0,1.5,0,2.2,0
								c0.8,0.1,1.5,0.3,2.2,0.7c1.3,0.7,2.3,2,2.9,3.3c0.6,1.3,0.9,2.8,0.8,4.3c0,1.4,0,2.8,0,4.2c0,1.4,0.1,2.8,0.6,4
								c0.5,1.3,1.3,2.4,2.4,3.2c0.5,0.4,1.1,0.7,1.8,0.9c0.6,0.2,1.3,0.2,2,0.2c10.7,0,20.6,0,29.8,0.1c4.6,0,9,0,13.1,0
								c2.1,0,4.1,0,6.1,0c2,0,3.7-1.3,4.7-2.9c1-1.6,1.4-3.4,1.3-5.2c0-1.8,0-3.5,0-5.2c0-1.7,0.5-3.3,1.4-4.6
								c0.9-1.3,2.1-2.3,3.6-2.7c0.7-0.2,1.4-0.2,2.1-0.2c0.7,0,1.4,0,2,0c1.3,0,2.6,0,3.8,0c2.4,0,4.7,0,6.6,0c4,0,7,0,9,0
								C403.9,7.2,404.9,7.3,404.9,7.3s-1,0-3.1,0c-2,0-5.1,0-9,0c-2,0-4.2,0-6.6,0c-1.2,0-2.5,0-3.8,0c-0.7,0-1.3,0-2,0
								c-0.7,0-1.4,0-2.1,0.2c-1.4,0.4-2.6,1.4-3.5,2.6c-0.8,1.3-1.3,2.9-1.3,4.5c0,1.7,0,3.4,0,5.2c0.1,1.8-0.3,3.7-1.3,5.3
								c-1,1.6-2.8,2.9-4.8,3c-2,0-4,0-6.1,0c-4.2,0-8.6,0-13.1,0c-9.2,0-19.1,0-29.8,0c-0.7,0-1.4,0-2-0.2
								c-0.7-0.2-1.3-0.5-1.9-0.9c-1.1-0.8-2-2-2.5-3.3c-0.5-1.3-0.7-2.8-0.6-4.2c0-1.4,0-2.8,0-4.2c0-1.4-0.2-2.8-0.8-4.1
								c-0.6-1.3-1.5-2.4-2.8-3.1c-0.6-0.3-1.3-0.6-2-0.6c-0.7,0-1.5,0-2.2,0c-1.5,0-3,0-4.5,0c-6.1,0-12.3,0-18.7,0
								c-1.6,0-3.2,0-4.8,0c-0.8,0-1.6,0-2.4,0.1c-0.8,0-1.6,0.2-2.4,0.3c-3.2,0.6-6.2,2.3-8.6,4.5c-2.5,2.2-4.4,5.1-5.7,8.3
								c-1.3,3.2-2,6.6-2,10.1c0,7,0,14.2,0,21.6c0,14.7,0,30,0,45.8c0,31.6,0,65.4,0.1,101c0,35.6,0,72.9,0.1,111.6
								c0,19.4,0,39.1,0,59.1c0,10,0,20.1,0,30.2c0,2.5,0,5.1,0,7.6c0,2.5-0.1,5.1,0.3,7.6c0.8,5,2.9,9.8,6.4,13.5
								c1.8,1.8,3.8,3.3,6.1,4.4c2.3,1,4.8,1.5,7.3,1.5c5.1,0,10.2,0,15.3,0c10.1,0,20.2,0,30.2,0c20,0,39.7,0.1,59,0.1
								c4.8,0,9.7,0,14.5,0c2.4,0,4.8,0,7.2,0c2.4,0,4.8,0.1,7.1-0.3c2.3-0.4,4.5-1.2,6.5-2.5c2-1.3,3.7-2.9,5.1-4.7
								c0.7-0.9,1.3-1.9,2-2.9c0.5-1,1.1-2.1,1.5-3.1c0.8-2.2,1.4-4.4,1.7-6.7c0.3-2.3,0.2-4.6,0.2-6.9c0-2.3,0-4.6,0-6.9
								c0-4.6,0-9.2,0-13.7c0-9.1,0-18.1,0-27c0-71.1,0-135.2,0-189c0-53.8,0-97.3,0-127.4c0-3.8,0-7.3,0-10.6c0-1.7,0-3.3-0.2-4.8
								c-0.2-1.5-0.5-3-0.9-4.4c-0.8-2.8-1.9-5.2-3.3-7.2c-1.4-2-2.9-3.6-4.4-4.9c-3.1-2.4-6.1-3.4-8.1-3.7c-1-0.2-1.8-0.2-2.3-0.3
								C405.2,7.3,404.9,7.3,404.9,7.3z"/>
						</g>
					</g>
				</g>
			</g>
		</g>
		<g>
			<path class="st6" d="M399,423.7c0,0,0,0.1-0.1,0.2c-0.1,0.1-0.2,0.3-0.4,0.5c-0.4,0.4-1,1-2,1.5c-2,1-5.4,1.4-9.2,0.2
				c-1.9-0.5-3.9-1.3-6.1-1.9c-1.1-0.3-2.3-0.5-3.5-0.6c-1.2-0.1-2.5,0-3.7,0.2c-2.5,0.4-5.2,1.4-8.1,1.5c-2.9,0.2-5.8-0.7-8.7-1.6
				c-1.4-0.5-2.8-0.9-4.3-1.2c-1.4-0.3-2.8-0.5-4.2-0.6c-2.8-0.2-5.5,0.2-8,0.8c-5,1.2-9.4,3-13.2,4.2c-3.7,1.3-6.8,2.1-9,2.5
				c-1.1,0.2-1.9,0.4-2.5,0.5c-0.6,0.1-0.9,0.1-0.9,0.1c0,0,0.3-0.1,0.9-0.2c0.6-0.1,1.4-0.3,2.5-0.6c2.1-0.5,5.2-1.4,8.9-2.7
				c3.7-1.2,8.1-3.1,13.2-4.4c2.5-0.6,5.3-1,8.2-0.9c1.4,0.1,2.9,0.3,4.3,0.6c1.4,0.3,2.9,0.8,4.3,1.2c2.9,0.9,5.7,1.7,8.5,1.6
				c2.8-0.1,5.4-1.1,8-1.5c1.3-0.2,2.6-0.3,3.9-0.2c1.3,0.1,2.4,0.4,3.6,0.7c2.2,0.6,4.3,1.5,6.1,2c3.7,1.2,7.1,0.9,9-0.1
				C398.4,424.9,399,423.7,399,423.7z"/>
		</g>
		<g>
			<g>
				<g>
					<path class="st0" d="M417.2,47.6c0.3-2.3-2.9-4.2-5.3-4.3c-1.2-0.1-2.4,0.1-3.4-0.3c-2.4-0.8-3.3-3.9-5.6-4.9
						c-1.7-0.7-3.7-0.1-5.4,0.8c-1.7,0.8-3.3,1.9-5.2,2c-1.6,0.1-3.4-0.5-4.8,0.3c-1.1,0.6-1.6,1.8-2.6,2.5c-1,0.7-2.2,0.9-3.4,0.9
						c-1.2,0.1-2.4,0.1-3.5,0.6c-1.1,0.5-2,1.6-1.7,2.8L417.2,47.6z"/>
				</g>
			</g>
		</g>
		<g>
			<g>
				<g>
					<path class="st1" d="M315.2,58.5c0.3-2.3-2.9-4.2-5.3-4.3c-1.2-0.1-2.4,0.1-3.4-0.3c-2.4-0.8-3.3-3.9-5.6-4.9
						c-1.7-0.7-3.7-0.1-5.4,0.8c-1.7,0.8-3.3,1.9-5.2,2c-1.6,0.1-3.4-0.5-4.8,0.3c-1.1,0.6-1.6,1.8-2.6,2.5c-1,0.7-2.2,0.9-3.4,0.9
						c-1.2,0.1-2.4,0.1-3.5,0.6c-1.1,0.5-2,1.6-1.7,2.8L315.2,58.5z"/>
				</g>
			</g>
		</g>
		<g>
			<g>
				<g>
					<path class="st1" d="M343,125c0.3-2-2.5-3.6-4.6-3.8c-1-0.1-2,0.1-3-0.3c-2.1-0.7-2.9-3.4-4.9-4.2c-1.5-0.6-3.2-0.1-4.7,0.7
						c-1.5,0.7-2.9,1.7-4.5,1.8c-1.4,0.1-3-0.4-4.2,0.3c-0.9,0.5-1.4,1.6-2.3,2.2c-0.8,0.6-1.9,0.7-2.9,0.8c-1,0.1-2.1,0.1-3,0.5
						c-0.9,0.4-1.7,1.4-1.5,2.4L343,125z"/>
				</g>
			</g>
		</g>
		<g>
			<g>
				<g>
					<circle class="st0" cx="342.2" cy="78.3" r="13.2"/>
				</g>
			</g>
			<g>
				<g>
					<g>
						<path class="st0" d="M340.3,107.8c-0.1,0-0.1-2.4-0.1-5.4c0-3,0.1-5.4,0.1-5.4c0.1,0,0.1,2.4,0.1,5.4
							C340.4,105.4,340.4,107.8,340.3,107.8z"/>
					</g>
				</g>
			</g>
			<g>
				<g>
					<g>
						<path class="st0" d="M332.7,93.8c0.1,0-1.2,2.3-2.8,5.1c-1.6,2.8-2.9,5-3,4.9c-0.1,0,1.2-2.3,2.8-5.1
							C331.3,96,332.6,93.8,332.7,93.8z"/>
					</g>
				</g>
			</g>
			<g>
				<g>
					<g>
						<path class="st0" d="M324.9,89c0,0.1-1.3,1.2-3.1,2.6c-1.7,1.4-3.2,2.5-3.3,2.4s1.3-1.2,3.1-2.6C323.4,90,324.8,88.9,324.9,89
							z"/>
					</g>
				</g>
			</g>
			<g>
				<g>
					<g>
						<path class="st0" d="M353.4,102.4c0,0-0.2-0.5-0.3-1.3c-0.2-0.8-0.5-2-0.8-3.2c-0.3-1.3-0.7-2.4-0.9-3.2
							c-0.3-0.8-0.4-1.3-0.4-1.3c0,0,0.3,0.5,0.6,1.3c0.3,0.8,0.7,1.9,1,3.2c0.3,1.3,0.6,2.4,0.7,3.3
							C353.4,101.9,353.5,102.4,353.4,102.4z"/>
					</g>
				</g>
			</g>
			<g>
				<g>
					<g>
						<path class="st0" d="M366.8,92.9c-0.1,0.1-1.8-1.4-3.9-3.2c-2.1-1.8-3.8-3.4-3.7-3.4c0.1-0.1,1.8,1.4,3.9,3.2
							C365.2,91.3,366.9,92.9,366.8,92.9z"/>
					</g>
				</g>
			</g>
			<g>
				<g>
					<g>
						<path class="st0" d="M371.9,79.9c0,0-0.6-0.1-1.6-0.2c-1-0.2-2.3-0.4-3.8-0.5c-1.5-0.2-2.9-0.3-3.9-0.3
							c-1-0.1-1.6-0.1-1.6-0.1c0,0,0.6-0.1,1.6-0.1c1,0,2.4,0.1,3.9,0.3c1.5,0.2,2.9,0.4,3.8,0.6C371.3,79.7,371.9,79.9,371.9,79.9z
							"/>
					</g>
				</g>
			</g>
			<g>
				<g>
					<g>
						<path class="st0" d="M371.9,67.1c0,0.1-2.8,0.8-6.4,1.7c-3.5,0.9-6.4,1.5-6.4,1.4c0-0.1,2.8-0.8,6.4-1.7
							C369,67.6,371.9,67,371.9,67.1z"/>
					</g>
				</g>
			</g>
			<g>
				<g>
					<g>
						<path class="st0" d="M357,52.1c0.1,0-1.3,2.2-3,4.9c-1.7,2.6-3.2,4.8-3.3,4.7c-0.1,0,1.3-2.2,3-4.9
							C355.5,54.2,357,52.1,357,52.1z"/>
					</g>
				</g>
			</g>
			<g>
				<g>
					<g>
						<path class="st0" d="M342.3,49c0,0,0,0.7,0,1.8c0,1.1,0,2.7,0,4.4c0,1.7,0,3.2,0,4.4c0,1.1,0,1.8,0,1.8c0,0-0.1-0.7-0.2-1.8
							c-0.1-1.1-0.1-2.7-0.1-4.4c0-1.7,0.1-3.3,0.1-4.4C342.2,49.7,342.2,49,342.3,49z"/>
					</g>
				</g>
			</g>
			<g>
				<g>
					<g>
						<path class="st0" d="M331.1,63c-0.1,0-1.5-2.1-3.1-4.8c-1.6-2.7-2.9-4.9-2.9-5c0.1,0,1.5,2.1,3.1,4.8
							C329.8,60.7,331.1,62.9,331.1,63z"/>
					</g>
				</g>
			</g>
			<g>
				<g>
					<g>
						<path class="st0" d="M324.4,68.6c0,0-0.5,0-1.4-0.2c-0.9-0.2-2-0.5-3.3-0.8c-1.3-0.4-2.4-0.8-3.2-1.1
							c-0.8-0.3-1.3-0.5-1.3-0.6c0,0,0.5,0.1,1.4,0.4c0.8,0.3,2,0.6,3.3,1c1.3,0.4,2.4,0.7,3.3,0.9
							C323.9,68.5,324.4,68.6,324.4,68.6z"/>
					</g>
				</g>
			</g>
			<g>
				<g>
					<g>
						<path class="st0" d="M321.5,78.8c0,0.1-1.9,0.3-4.2,0.5c-2.3,0.2-4.2,0.3-4.2,0.3c0-0.1,1.9-0.3,4.2-0.5
							C319.6,78.8,321.4,78.7,321.5,78.8z"/>
					</g>
				</g>
			</g>
		</g>
		<g>
			<g>
				<g>
					<path class="st6" d="M367,242.1c0,0-0.7-0.2-1.9-0.5c-1.2-0.3-3.1-0.5-5.3-0.2c-2.2,0.3-4.9,1.2-7.2,3.1
						c-2.3,1.9-4.3,4.7-5.1,8.1c0,0,0,0.1,0,0.1l-0.1,0.6l-0.2-0.5c-1.3-3.2-3.6-5.7-6.1-7.4c-2.5-1.6-5.2-2.3-7.4-2.5
						c-2.3-0.2-4.1,0.2-5.3,0.5c-1.2,0.3-1.9,0.6-1.9,0.6c0,0,0.2-0.1,0.5-0.2c0.3-0.1,0.8-0.3,1.4-0.5c1.2-0.4,3.1-0.7,5.4-0.6
						c2.3,0.1,5,0.8,7.6,2.5c2.6,1.6,4.9,4.2,6.3,7.5l-0.4,0c0,0,0-0.1,0-0.1c0.8-3.5,2.9-6.4,5.2-8.3c2.4-1.9,5.1-2.8,7.4-3.1
						c2.3-0.3,4.2,0,5.4,0.3c0.6,0.2,1.1,0.3,1.4,0.4C366.8,242,367,242.1,367,242.1z"/>
				</g>
			</g>
			<g>
				<g>
					<path class="st6" d="M418.3,67.3c0,0-0.4-0.1-1.1-0.2c-0.7-0.1-1.7-0.3-2.9-0.1c-1.2,0.2-2.7,0.7-3.9,1.7
						c-1.3,1-2.3,2.6-2.8,4.4l0,0l-0.1,0.6l-0.2-0.5c-0.7-1.7-2-3.1-3.3-4c-1.4-0.9-2.8-1.3-4.1-1.4c-1.2-0.1-2.2,0.1-2.9,0.2
						c-0.7,0.2-1,0.3-1,0.3c0,0,0.1-0.1,0.2-0.1c0.2-0.1,0.4-0.2,0.8-0.3c0.7-0.2,1.7-0.4,3-0.4c1.3,0.1,2.8,0.4,4.2,1.3
						c1.4,0.9,2.7,2.3,3.5,4.2l-0.4,0l0-0.1c0.5-1.9,1.6-3.5,2.9-4.6c1.3-1.1,2.8-1.6,4.1-1.7c1.3-0.1,2.3,0,3,0.2
						c0.3,0.1,0.6,0.2,0.8,0.3C418.2,67.3,418.3,67.3,418.3,67.3z"/>
				</g>
			</g>
			<g>
				<g>
					<path class="st6" d="M333.5,188.7c0,0-0.4,0.4-1,1.2c-0.7,0.7-1.6,1.9-2.5,3.4c-1.9,3-3.8,7.7-3.7,13.2c0,0.1,0,0.1,0,0.2
						l-0.4,0c-0.4-2.7-1.3-5.1-2.4-7.1c-1.1-2-2.4-3.7-3.7-5c-1.2-1.3-2.4-2.1-3.2-2.7c-0.8-0.6-1.3-0.8-1.3-0.9c0,0,0.1,0,0.4,0.2
						c0.2,0.1,0.6,0.3,1,0.6c0.8,0.5,2,1.4,3.3,2.6c1.3,1.2,2.6,2.9,3.8,5c1.2,2.1,2.1,4.5,2.5,7.3l-0.4,0c0-0.1,0-0.1,0-0.2
						c-0.1-5.5,1.9-10.4,3.9-13.3c1-1.5,1.9-2.6,2.6-3.3c0.3-0.4,0.6-0.6,0.8-0.8C333.4,188.8,333.5,188.7,333.5,188.7z"/>
				</g>
			</g>
		</g>
	</g>
</g>
<g id="Character">
	<g>
		<g>
			<g>
				<g>
					<g>
						<path class="st9" d="M270,152.3c0,0-0.1,40.3,0.2,49.2c0.3,8.9,24,58.8,24,58.8l12.9-3.1l-15-53.6l-1.8-28.5L270,152.3z"/>
					</g>
				</g>
				<g>
					<g>
						<g>
							<path class="st9" d="M306.9,256.2l8.4,12.5l2.3,13c0,0-3.3,1.7-4.7-3.5c0,0-0.3,2.7-1.5,3c-1.3,0.2-1.8-0.7-1.8-0.7
								s-0.5,2.2-2.3,1.7c-1.8-0.5-2-1.2-2.1-1.5c-0.1-0.3-1.1,0.5-2.4,0c-1.3-0.4-1.3-1.6-1.3-1.6s-1.9,0.5-2.6,0.1
								c-0.6-0.5-1.2-1.8-1.2-1.8s-1.4-3.2-1.1-3.8c0.3-0.6,1.4-0.6,1.4-0.6l-0.7-2.4c0,0-2.3-3.3-2.6-4.8c-0.3-1.5-0.7-8.1-0.7-8.1
								L306.9,256.2z"/>
						</g>
					</g>
				</g>
			</g>
		</g>
		<g>
			<path class="st10" d="M317.6,281.7c0,0-0.1,0.1-0.3,0.1c-0.2,0.1-0.4,0.1-0.8,0.2c-0.3,0-0.8,0-1.3-0.1c-0.5-0.1-1.1-0.4-1.4-1.1
				l0,0c-0.6-1.2-1.2-2.7-2-4.4c-0.8-1.6-1.8-3.4-3.6-4.5c-1.7-1-3.7-1.5-5.1-2.7c-1.4-1.1-2.3-2.6-2.8-3.9
				c-0.5-1.3-0.6-2.4-0.5-3.2c0-0.4,0-0.7,0.1-0.9c0-0.2,0.1-0.3,0.1-0.3c0.1,0-0.3,1.7,0.7,4.2c0.5,1.2,1.4,2.6,2.7,3.6
				c1.3,1.1,3.3,1.5,5.1,2.6c1.9,1.2,3,3.1,3.7,4.8c0.7,1.7,1.3,3.2,1.9,4.4l0,0c0.2,0.5,0.7,0.8,1.1,1c0.4,0.1,0.9,0.2,1.2,0.2
				C317.2,281.7,317.6,281.6,317.6,281.7z"/>
		</g>
		<g>
			<path class="st10" d="M309.8,280.7c-0.1,0-0.6-0.6-1.4-1.6c-0.4-0.5-0.8-1.2-1.3-1.9c-0.2-0.4-0.5-0.8-0.7-1.2
				c-0.2-0.4-0.5-0.9-0.4-1.6c0.2-0.6,0.8-0.9,1.4-1c0.5,0,1,0.2,1.4,0.4c0.8,0.5,1.2,1.3,1.5,1.8c0.6,1.2,1.1,1.8,1.1,1.8
				c-0.1,0.1-0.7-0.5-1.4-1.6c-0.4-0.5-0.8-1.2-1.4-1.6c-0.3-0.2-0.7-0.4-1.1-0.3c-0.4,0-0.8,0.3-0.9,0.6c-0.1,0.3,0.1,0.8,0.3,1.2
				c0.2,0.4,0.4,0.8,0.7,1.2c0.4,0.7,0.8,1.4,1.2,2C309.4,279.9,309.9,280.6,309.8,280.7z"/>
		</g>
		<g>
			<path class="st10" d="M305.3,280.8c-0.1,0-1.3-2.3-2.5-5.4c-0.1-0.4-0.1-0.9,0.2-1.4c0.3-0.4,0.7-0.6,1.1-0.6
				c0.8-0.1,1.5,0.4,1.8,0.8c0.7,0.9,0.8,1.6,0.7,1.6c-0.1,0.1-0.3-0.6-1-1.3c-0.3-0.3-0.9-0.7-1.5-0.6c-0.3,0-0.6,0.2-0.7,0.5
				c-0.2,0.2-0.2,0.6-0.1,0.9C304.5,278.2,305.4,280.7,305.3,280.8z"/>
		</g>
		<g>
			<path class="st10" d="M303,275.1c-0.1,0-0.3-0.6-0.9-1.3c-0.3-0.3-0.8-0.7-1.4-0.6c-0.6,0-1.1,0.6-0.9,1.2c1.1,2.8,2,5.2,1.8,5.3
				c-0.1,0-1.2-2.2-2.3-5.1c-0.1-0.4-0.1-1,0.3-1.3c0.3-0.3,0.7-0.5,1.1-0.5c0.8,0,1.4,0.5,1.7,0.9C303,274.4,303,275,303,275.1z"/>
		</g>
		<g>
			<path class="st10" d="M297.7,273.3c-0.1,0,0-0.2,0.2-0.4c0.3-0.1,0.7-0.1,1,0.1c0.3,0.3,0.5,0.6,0.5,0.8c0,0.2,0,0.4,0,0.4
				c-0.1,0.1-0.4-0.5-0.8-0.8c-0.2-0.1-0.4-0.2-0.6-0.2C297.9,273.3,297.8,273.3,297.7,273.3z"/>
		</g>
	</g>
	
		<rect x="181" y="265.5" transform="matrix(-0.8849 -0.4658 0.4658 -0.8849 197.6651 673.131)" class="st6" width="2" height="93.3"/>
	<g>
		<g>
			<g>
				<g>
					<g>
						<path class="st6" d="M116,428.6c-1.7,3-0.6,6.9,2.4,8.6c3,1.7,6.9,0.6,8.6-2.4c1.7-3,0.6-6.9-2.4-8.6
							C121.6,424.5,117.7,425.6,116,428.6z"/>
					</g>
				</g>
			</g>
			<g>
				<g>
					<g>
						<path class="st7" d="M112.2,426.5c-1.7,3-0.6,6.9,2.4,8.6c3,1.7,6.9,0.6,8.6-2.4c1.7-3,0.6-6.9-2.4-8.6
							C117.8,422.4,113.9,423.4,112.2,426.5z"/>
					</g>
				</g>
			</g>
		</g>
		<path class="st5" d="M111.9,420.9l20.1,10.6c3.4,1.8,7.7,0.5,9.5-2.9l50-94.9c1.8-3.4,0.5-7.7-2.9-9.5l-20.1-10.6
			c-3.4-1.8-7.7-0.5-9.5,2.9l-50,94.9C107.2,414.9,108.5,419.1,111.9,420.9z"/>
		<path class="st6" d="M141.2,390.5l0.9,0.5c1.7,0.9,3.9,0.2,4.8-1.5l16.6-31.5c0.9-1.7,0.2-3.9-1.5-4.8l-0.9-0.5
			c-1.7-0.9-3.9-0.2-4.8,1.5l-16.6,31.5C138.9,387.4,139.5,389.6,141.2,390.5z"/>
		<g>
			<path class="st6" d="M121.9,426.4c-0.1-0.1,12.5-24.2,28.1-54c15.7-29.7,28.5-53.8,28.6-53.7c0.1,0.1-12.5,24.2-28.1,54
				C134.8,402.4,122,426.5,121.9,426.4z"/>
		</g>
		<path class="st6" d="M175,317.1l6.8,3.6c0.6,0.3,1.3,0.1,1.7-0.5l0.2-0.3c0.3-0.6,0.1-1.3-0.5-1.7l-6.8-3.6
			c-0.6-0.3-1.3-0.1-1.7,0.5l-0.2,0.3C174.1,316,174.4,316.7,175,317.1z"/>
	</g>
	<g>
		<g>
			<path class="st6" d="M238.8,102.7c1.1,0.6,2.7-0.2,3.2-1.4c0.5-1.2,0.3-2.6-0.1-3.8c-0.4-1.2-0.9-2.5-1-3.8
				c-0.1-2.4,1.5-4.7,3.7-5.4c-2.2-1.8-2.4-5.5-0.4-7.5c0.9-0.9,2.2-1.4,3.3-2.1c0.6-0.4,1.2-0.9,1.7-1.4c-1,0.2-2,0.3-3,0.1
				c-1.6-0.3-3-1.5-3.5-3.1c-0.5-1.6-0.1-3.4,1.1-4.5s3.1-1.4,4.6-0.7c1.4,0.8,2.2,2.3,2.9,3.8c0.2,0.5,0.4,0.9,0.6,1.4
				c2-2.7,3.9-5.4,7-6.3c2.8-0.8,5.8,0.1,8.8-0.1c2.1-0.2,4.2-0.9,6.3-1.2c2.1-0.2,4.5,0.2,5.8,2c0.7,1,1,2.3,1.7,3.3
				c1.5,2.1,4.9,2.4,6.1,4.6c1,1.8,0.2,4.2,0.7,6.2c0.5,2.2,2.3,3.9,3.8,5.6c1.5,1.7,2.8,4.1,2,6.2c-0.7,1.9-2.9,2.9-3.6,4.8
				c-0.5,1.4-0.1,2.9-0.1,4.4c0,1.5-0.6,3.2-2,3.5l-16.3,4.3c-5.6,2.3-11.4,4.6-17.5,4.6c-6.1,0-12.5-2.9-14.9-8.5
				c0.9,0,1.7-0.4,2.3-1C240.4,105.9,239.2,104.4,238.8,102.7z"/>
		</g>
		<g>
			<g>
				<g>
					<g>
						<g>
							<g>
								<g>
									<g>
										<path class="st6" d="M252.1,107.8c-1.3-4.1-2.7-8.3-3.3-12.6c-0.6-4.3-0.5-8.8,1-12.9c0.2-0.6,2.2-4.8,2.8-4.7
											c0.5,0-0.7,3.9-0.5,4.3c2.3,3.9,2.9,8.6,2.5,13C254.4,99.5,253.4,103.5,252.1,107.8"/>
									</g>
								</g>
							</g>
						</g>
						<g>
							<g>
								<g>
									<g>
										<g>
											<path class="st9" d="M266.5,144c-6.7-0.1-14.4-14.9-14.4-14.9l-0.4-37.8c-0.4-10.9,5.7-20.2,16.6-20.2l1,0.1
												c10.1,0.5,18.2,8.8,18.4,18.9c0.3,9.4,0.4,19.9,0.1,24.9c-0.7,10.4-11.2,11.5-11.2,11.5c0,0-0.1,2.4-0.1,5.5
												C276.4,138.8,269.2,144.2,266.5,144L266.5,144z"/>
										</g>
									</g>
								</g>
							</g>
						</g>
						<g>
							<g>
								<g>
									<g>
										<g>
											<g>
												<path class="st10" d="M276.6,126.4c0,0-6.6,0-13.4-4.8c0,0,2.9,7.8,13.4,7.4L276.6,126.4z"/>
											</g>
										</g>
									</g>
								</g>
							</g>
						</g>
						<g>
							<g>
								<g>
									<g>
										<g>
											<g>
												<g>
													<g>
														<g>
															<g>
																<g>
																	<g>
																		<path class="st6" d="M285,97.1c0,0.8-0.7,1.4-1.5,1.4c-0.8,0-1.5-0.6-1.5-1.4c0-0.8,0.7-1.4,1.5-1.4
																			C284.4,95.7,285,96.3,285,97.1z"/>
																	</g>
																</g>
															</g>
														</g>
													</g>
												</g>
											</g>
										</g>
									</g>
								</g>
							</g>
						</g>
						<g>
							<g>
								<g>
									<g>
										<g>
											<g>
												<g>
													<g>
														<g>
															<g>
																<g>
																	<g>
																		<g>
																			<path class="st6" d="M285.3,94.2c-0.2,0.2-1.3-0.7-2.9-0.8c-1.6-0.1-2.8,0.7-3,0.5c-0.1-0.1,0.1-0.4,0.7-0.8
																				c0.5-0.3,1.4-0.7,2.4-0.6c1,0.1,1.8,0.5,2.3,0.9C285.2,93.8,285.4,94.1,285.3,94.2z"/>
																		</g>
																	</g>
																</g>
															</g>
														</g>
													</g>
												</g>
											</g>
										</g>
									</g>
								</g>
							</g>
						</g>
						<g>
							<g>
								<g>
									<g>
										<g>
											<g>
												<g>
													<g>
														<g>
															<g>
																<g>
																	<g>
																		<path class="st6" d="M270.3,97.6c0,0.8-0.7,1.4-1.5,1.4c-0.8,0-1.5-0.6-1.5-1.4c0-0.8,0.7-1.4,1.5-1.4
																			C269.6,96.2,270.3,96.8,270.3,97.6z"/>
																	</g>
																</g>
															</g>
														</g>
													</g>
												</g>
											</g>
										</g>
									</g>
								</g>
							</g>
						</g>
						<g>
							<g>
								<g>
									<g>
										<g>
											<g>
												<g>
													<g>
														<g>
															<g>
																<g>
																	<g>
																		<g>
																			<path class="st6" d="M269.5,94c-0.2,0.2-1.3-0.7-2.9-0.8c-1.6-0.1-2.8,0.7-3,0.5c-0.1-0.1,0.1-0.4,0.7-0.8
																				c0.5-0.3,1.4-0.7,2.4-0.6c1,0.1,1.8,0.5,2.3,0.9C269.5,93.6,269.6,93.9,269.5,94z"/>
																		</g>
																	</g>
																</g>
															</g>
														</g>
													</g>
												</g>
											</g>
										</g>
									</g>
								</g>
							</g>
						</g>
						<g>
							<g>
								<g>
									<g>
										<g>
											<g>
												<g>
													<g>
														<g>
															<g>
																<g>
																	<g>
																		<path class="st6" d="M274.6,106.7c0-0.1,1-0.2,2.6-0.3c0.4,0,0.8-0.1,0.9-0.4c0.1-0.3,0-0.7-0.2-1.2
																			c-0.3-1-0.7-2.1-1-3.2c-1.4-4.5-2.5-8.3-2.3-8.3c0.2-0.1,1.5,3.6,2.9,8.1c0.3,1.1,0.7,2.2,1,3.2
																			c0.1,0.5,0.4,1,0.1,1.6c-0.1,0.3-0.4,0.5-0.7,0.6c-0.3,0.1-0.5,0.1-0.7,0.1C275.6,106.8,274.6,106.8,274.6,106.7z
																			"/>
																	</g>
																</g>
															</g>
														</g>
													</g>
												</g>
											</g>
										</g>
									</g>
								</g>
							</g>
						</g>
						<g>
							<g>
								<g>
									<g>
										<g>
											<g>
												<g>
													<g>
														<g>
															<g>
																<g>
																	<g>
																		<path class="st6" d="M269.8,107.5c0.3,0,0.2,1.7,1.6,3.1c1.4,1.3,3.3,1.2,3.3,1.5c0,0.1-0.4,0.3-1.2,0.3
																			c-0.8,0-1.9-0.3-2.8-1.1c-0.9-0.8-1.2-1.8-1.2-2.6C269.5,107.9,269.7,107.5,269.8,107.5z"/>
																	</g>
																</g>
															</g>
														</g>
													</g>
												</g>
											</g>
										</g>
									</g>
								</g>
							</g>
						</g>
						<g>
							<g>
								<g>
									<g>
										<g>
											<g>
												<g>
													<g>
														<path class="st6" d="M269.8,87.5c-0.2,0.4-1.8,0.1-3.7,0.3c-1.9,0.1-3.4,0.6-3.7,0.2c-0.1-0.2,0.2-0.6,0.8-1
															c0.6-0.4,1.6-0.7,2.8-0.8c1.1-0.1,2.2,0.2,2.8,0.5C269.5,86.9,269.9,87.3,269.8,87.5z"/>
													</g>
												</g>
											</g>
										</g>
									</g>
								</g>
							</g>
						</g>
						<g>
							<g>
								<g>
									<g>
										<g>
											<g>
												<g>
													<g>
														<path class="st6" d="M284.9,88.8c-0.3,0.3-1.4-0.1-2.7-0.2c-1.3-0.1-2.5,0.1-2.7-0.3c-0.1-0.2,0.1-0.5,0.6-0.9
															c0.5-0.3,1.3-0.6,2.2-0.5c0.9,0.1,1.7,0.5,2.1,0.8C284.9,88.3,285,88.7,284.9,88.8z"/>
													</g>
												</g>
											</g>
										</g>
									</g>
								</g>
							</g>
						</g>
						<g>
							<g>
								<g>
									<g>
										<path class="st9" d="M252.1,99c-0.2-0.1-7.1-2.5-7.2,4.6c-0.2,7.2,7.1,5.8,7.1,5.6C252,109.1,252.1,99,252.1,99z"/>
									</g>
								</g>
							</g>
						</g>
						<g>
							<g>
								<g>
									<g>
										<g>
											<path class="st10" d="M249.9,106.5c0,0-0.1,0.1-0.3,0.2c-0.2,0.1-0.6,0.1-0.9,0c-0.7-0.3-1.4-1.5-1.4-2.8
												c0-0.7,0.1-1.3,0.4-1.8c0.2-0.5,0.6-0.9,1-0.9c0.4-0.1,0.6,0.2,0.7,0.4c0.1,0.2,0,0.3,0.1,0.4c0,0,0.2-0.1,0.1-0.4
												c0-0.1-0.1-0.3-0.3-0.5c-0.2-0.1-0.4-0.2-0.7-0.2c-0.6,0-1.1,0.5-1.3,1.1c-0.3,0.6-0.5,1.3-0.5,2c0,1.4,0.7,2.8,1.8,3.1
												c0.5,0.1,0.9,0,1.1-0.2C249.9,106.7,249.9,106.6,249.9,106.5z"/>
										</g>
									</g>
								</g>
							</g>
						</g>
						<g>
							<g>
								<g>
									<g>
										<path class="st6" d="M283.3,78.1c1.2-0.6-2.3-4.4-5.1-5.7c-4.3-2-10.8-3.3-14.8-2.2c-4.8,1.3-8.8,3.6-11.2,7.9
											c-2.5,4.3-3.4,9.4-3.3,14.3c0,1.5,0.2,3.1,1,4.4c1,1.6,2.9,2.6,2.8,4.8c0,0.8,0.2,1.6,0.7,2.2c1.3,1.4,2.9,0.1,3.7-1.2
											c1.6-2.8,1.8-6.1,2-9.3c0.1-2.3,0.2-4.6-0.4-6.8c-0.3-1.2-0.9-2.3-1.2-3.5c-0.3-1.2-0.2-2.6,0.6-3.6
											c0.1-0.2,0.3-0.4,0.6-0.6c2-1.8,4.9-2.2,7.4-1.3c4,1.5,10.9,3.7,12.7,2.4c2.6-1.9,3.2-3.2,3.2-3.2L283.3,78.1z"/>
									</g>
								</g>
							</g>
						</g>
					</g>
				</g>
				<g>
					<g>
						<g>
							<g>
								<path class="st6" d="M263.8,69.1c3.9-1.3,8.4-1.1,12.1,0.8c1.9,1,3.7,2.7,4.3,4.8c0.6,2.1-0.4,4.7-2.4,5.5l-0.1,0.1
									c-3.1,1-5,0.6-8.1-0.5c-2.5-0.9-4.8-2.5-7.4-3.4c-2.7-1-5.7-1.1-8.5-0.4C256.4,73,259.8,70.4,263.8,69.1z"/>
							</g>
						</g>
					</g>
				</g>
			</g>
		</g>
		<g>
			<g>
				<path class="st7" d="M250.2,76.2c0.1,0.1,0.6-0.6,1.8-1.4c0.6-0.4,1.3-0.8,2.2-1.2c0.9-0.3,1.9-0.6,2.9-0.5
					c2.1,0.2,3.9,1.2,5,2.1c1.1,0.9,1.6,1.6,1.7,1.6c0,0-0.1-0.2-0.3-0.6c-0.2-0.3-0.6-0.8-1.2-1.3c-1.1-1-2.9-2.1-5.2-2.3
					c-1.1-0.1-2.2,0.2-3.1,0.6c-0.9,0.4-1.6,0.9-2.2,1.3C250.6,75.4,250.1,76.2,250.2,76.2z"/>
			</g>
		</g>
		<g>
			<g>
				<path class="st7" d="M249.4,78.8c-0.1,0,0.1,0.8,0.5,2c0.5,1.2,1.4,2.8,2.7,4.3c1.3,1.5,2.8,2.6,4,3.2c1.2,0.6,1.9,0.8,2,0.8
					c0.1-0.1-3-1.3-5.6-4.3C250.4,81.9,249.6,78.7,249.4,78.8z"/>
			</g>
		</g>
		<g>
			<g>
				<path class="st7" d="M246.5,79.9c0,0-0.1,0.3,0,0.8c0,0.5,0.1,1.3,0.3,2.2c0.4,1.8,1.4,4.3,3.3,6.5c1.9,2.2,4.2,3.5,6,4.2
					c0.9,0.3,1.6,0.5,2.1,0.6c0.5,0.1,0.8,0.1,0.8,0.1c0-0.1-1.1-0.3-2.8-1c-1.7-0.7-3.9-2-5.8-4.2c-1.8-2.1-2.9-4.5-3.3-6.3
					C246.7,81.1,246.6,79.9,246.5,79.9z"/>
			</g>
		</g>
		<g>
			<g>
				<path class="st7" d="M272,68.5c0,0.1,0.7,0.3,1.9,0.7c1.2,0.5,2.7,1.3,4.1,2.4c1.5,1.2,2.5,2.6,3.2,3.6c0.7,1,1,1.8,1.1,1.7
					c0,0-0.2-0.8-0.8-1.9c-0.6-1.1-1.7-2.6-3.2-3.8c-1.5-1.2-3.1-2-4.3-2.4C272.8,68.5,272,68.4,272,68.5z"/>
			</g>
		</g>
		<g>
			<g>
				<path class="st7" d="M244.3,69.4c-0.1,0,0.2,2.1,1.8,4c1.6,1.9,3.6,2.6,3.6,2.5c0.1-0.1-1.7-1-3.2-2.8
					C244.9,71.3,244.4,69.3,244.3,69.4z"/>
			</g>
		</g>
	</g>
	<g>
		<g>
			<g>
				<path class="st7" d="M203.9,242.2c0,0-12.7,5-21.3,1.8c-8.6-3.1-10.8-9.4-10.8-9.4l0,0c-1.1-17.7,1.4-35.4,7.4-52.1l5.8-16.4
					c0,0,17.5-26.5,29.1-32.5c11.5-6,22.4-2.8,21.4-1.8c-1,1.1-16.7,97.2-16.7,97.2L203.9,242.2z"/>
			</g>
		</g>
		<g>
			<g>
				<g>
					<path class="st6" d="M204.4,213c0,0-0.5-0.1-1.5-0.2c-1.1-0.1-2.6-0.3-4.5-0.5c-4-0.4-9.6-1-16.4-1.7l-0.3,0l0,0.3
						c-0.5,3.5-1,7.4-1.6,11.4c-0.3,2-0.6,4.1-0.8,6.3c-0.3,2.1-0.7,4.4-0.4,6.7c0.2,1.7,0.9,3.4,2.3,4.4c1.4,1.1,3.1,1.3,4.6,1.4
						c1.6,0,3.1-0.1,4.6-0.2c1.5-0.2,3-0.5,4.3-1.1c1.3-0.7,2.3-1.8,3-3c0.7-1.2,1.1-2.4,1.6-3.6c0.8-2.4,1.5-4.6,2-6.7
						c1.1-4.1,1.9-7.5,2.4-9.8c0.2-1.1,0.4-2,0.6-2.7C204.4,213.3,204.4,213,204.4,213c0,0-0.1,0.3-0.3,0.9
						c-0.2,0.7-0.4,1.5-0.7,2.6c-0.6,2.3-1.5,5.6-2.6,9.7c-0.6,2-1.2,4.3-2.1,6.6c-0.4,1.2-0.9,2.4-1.5,3.5
						c-0.7,1.1-1.6,2.1-2.8,2.7c-1.2,0.6-2.6,0.9-4,1.1c-1.4,0.1-3,0.2-4.5,0.2c-1.5-0.1-3-0.3-4.2-1.2c-1.2-0.9-1.8-2.4-2-3.9
						c-0.3-2.2,0.1-4.4,0.3-6.5c0.3-2.2,0.6-4.3,0.8-6.3c0.5-4.1,1-7.9,1.5-11.5l-0.3,0.3c6.7,0.6,12.2,1,16.2,1.4
						c1.9,0.1,3.5,0.3,4.6,0.4c0.5,0,0.9,0.1,1.2,0.1C204.2,213,204.4,213,204.4,213z"/>
				</g>
			</g>
		</g>
		<g>
			<g>
				<g>
					<path class="st6" d="M207.9,138.2c-0.1,0.2,3.8,1.1,8.5,2.5c2.3,0.7,4.4,1.5,5.9,2.2c1.4,0.7,2.1,1.4,2.2,1.3
						c0.1-0.1-0.5-0.9-2-1.8c-1.4-0.8-3.5-1.7-5.9-2.4c-2.4-0.7-4.6-1.2-6.1-1.5C208.9,138.2,207.9,138.1,207.9,138.2z"/>
				</g>
			</g>
		</g>
		<g>
			<g>
				<g>
					<path class="st6" d="M193.4,196.8c0,0,0.2-0.8,0.4-2.4c0.1-0.8,0.2-1.7,0.4-2.8c0.2-1.1,0.4-2.3,0.7-3.7
						c0.6-2.7,1.5-5.9,2.6-9.4c1.2-3.5,2.6-7.3,4.3-11.1c3.4-7.8,7-14.6,9.8-19.4c1.4-2.4,2.5-4.4,3.3-5.7c0.8-1.3,1.2-2.1,1.2-2.1
						c0,0-0.5,0.7-1.4,2c-0.9,1.3-2.1,3.2-3.5,5.6c-2.9,4.8-6.6,11.5-10,19.3c-1.7,3.9-3.1,7.7-4.2,11.2c-1.1,3.5-2,6.7-2.5,9.5
						c-0.3,1.4-0.5,2.6-0.6,3.7c-0.2,1.1-0.3,2-0.3,2.8c0,0.7-0.1,1.3-0.1,1.8C193.4,196.6,193.4,196.8,193.4,196.8z"/>
				</g>
			</g>
		</g>
		<g>
			<g>
				<g>
					
						<rect x="186" y="204.2" transform="matrix(-0.9957 -9.315528e-02 9.315528e-02 -0.9957 364.4693 433.1295)" class="st1" width="12.7" height="7.6"/>
				</g>
			</g>
			<g>
				<g>
					<path class="st6" d="M186.1,202c0.3-1.3,5.7-2.5,5.7-2.5l0.2-2.2l3.1,0.3l-0.2,2.2c0,0,4.1,2.3,4.6,3.1
						c0.5,0.8-0.6,3.5-0.6,3.5l-13.1-1.2C185.8,205.2,185.8,203.4,186.1,202z"/>
				</g>
			</g>
			<g>
				<g>
					<g>
						<path class="st0" d="M185.8,209c0,0.2,2.8,0.6,6.3,0.9c3.5,0.3,6.4,0.4,6.4,0.2c0-0.2-2.8-0.6-6.3-0.9
							C188.7,208.9,185.8,208.8,185.8,209z"/>
					</g>
				</g>
			</g>
			<g>
				<g>
					<g>
						<path class="st7" d="M186.3,202c0,0.2,2.9,0.9,6.6,1.3c3.7,0.4,6.8,0.2,6.8,0.1c0-0.2-3-0.4-6.7-0.8
							C189.3,202.2,186.3,201.8,186.3,202z"/>
					</g>
				</g>
			</g>
			<g>
				<g>
					<g>
						<path class="st7" d="M191.8,199.5c-0.2,0.1,0.4,0.9,1.4,1.1c1.1,0.1,1.8-0.5,1.7-0.7c-0.1-0.2-0.8,0.1-1.6,0
							C192.5,199.8,191.9,199.4,191.8,199.5z"/>
					</g>
				</g>
			</g>
		</g>
		<g>
			<g>
				<g>
					<path class="st6" d="M184.7,166.2c0,0.2,3.5,0.8,7.7,1.9c4.2,1,7.6,2.1,7.7,1.9c0.1-0.2-3.3-1.5-7.5-2.6
						C188.3,166.4,184.7,166,184.7,166.2z"/>
				</g>
			</g>
		</g>
		<g>
			<g>
				<g>
					<path class="st6" d="M175.6,192.7c0.1,0.1,1.3-1.4,3.3-3.7c2-2.3,4.9-5.4,8.3-8.6c3.4-3.2,6.7-5.8,9.1-7.7c2.4-1.8,4-2.9,3.9-3
						c0,0-0.4,0.2-1.2,0.6c-0.7,0.4-1.8,1.1-3,2c-2.5,1.8-5.9,4.4-9.3,7.6c-3.4,3.2-6.3,6.4-8.2,8.8c-1,1.2-1.7,2.2-2.2,2.9
						C175.8,192.2,175.5,192.6,175.6,192.7z"/>
				</g>
			</g>
		</g>
		<g>
			<g>
				<g>
					<path class="st6" d="M175.7,192.4c-0.1,0.2,3.3,1.9,7.8,3.4c4.5,1.5,8.2,2.1,8.3,1.9c0-0.2-3.6-1.1-8-2.6
						C179.3,193.7,175.8,192.2,175.7,192.4z"/>
				</g>
			</g>
		</g>
		<g>
			<g>
				<g>
					<path class="st6" d="M184.2,166.2c0,0-0.1,0.5-0.2,1.3c-0.1,0.8-0.2,2-0.2,3.5c0,3,0.3,7.1,1.5,11.5c1.2,4.4,2.9,8.2,4.4,10.8
						c0.7,1.3,1.4,2.3,1.9,3c0.5,0.7,0.8,1,0.8,1c0.1-0.1-0.9-1.6-2.3-4.2c-1.4-2.6-3-6.4-4.2-10.7c-1.2-4.4-1.6-8.4-1.7-11.4
						C184.2,168,184.4,166.2,184.2,166.2z"/>
				</g>
			</g>
		</g>
	</g>
	<g>
		<g>
			<g>
				<path class="st9" d="M293.9,325l15.4,78.9l-16.6,3.9c0,0-18-46.9-20.3-54.3c-2.3-7.4-4.9-27.4-4.9-27.4L293.9,325z"/>
			</g>
		</g>
		<g>
			<g>
				<g>
					<g>
						<g>
							<g>
								<g>
									<g>
										<g>
											<path class="st5" d="M309.8,403.3l3.8,17.6c0,0,18.8,0.8,19.8,3.9l-33.5,9.9l-7.8-27L309.8,403.3z"/>
										</g>
									</g>
								</g>
							</g>
						</g>
					</g>
				</g>
				<g class="st11">
					<g>
						<g>
							<g>
								<g>
									<g>
										<g>
											<g>
												<path class="st12" d="M302.8,422c-0.6,0.3-0.9,1.2-0.6,1.8c0.3,0.6,1.2,0.9,1.8,0.6c0.6-0.3,1-1.3,0.6-1.9
													c-0.4-0.6-1.4-0.9-1.9-0.4"/>
											</g>
										</g>
									</g>
								</g>
							</g>
						</g>
					</g>
				</g>
				<g>
					<g>
						<g>
							<g>
								<g>
									<g>
										<g>
											<path class="st6" d="M300,434.7l-0.7-2.7l32.7-8.4c0,0,1.2,0.2,1.8,1.5L300,434.7z"/>
										</g>
									</g>
								</g>
							</g>
						</g>
					</g>
				</g>
				<g>
					<g>
						<g>
							<g>
								<g>
									<g>
										<g>
											<g>
												<path class="st6" d="M314.1,420.5c0,0.2-0.8,0.5-1.4,1.2c-0.7,0.7-0.9,1.5-1.1,1.5c-0.2,0-0.2-1,0.7-1.9
													C313.1,420.4,314.1,420.4,314.1,420.5z"/>
											</g>
										</g>
									</g>
								</g>
							</g>
						</g>
					</g>
				</g>
				<g>
					<g>
						<g>
							<g>
								<g>
									<g>
										<g>
											<g>
												<path class="st6" d="M318,421.1c0.1,0.2-0.6,0.6-0.9,1.5c-0.4,0.8-0.4,1.6-0.5,1.7c-0.1,0.1-0.5-0.9,0-1.9
													C317,421.3,318,420.9,318,421.1z"/>
											</g>
										</g>
									</g>
								</g>
							</g>
						</g>
					</g>
				</g>
				<g>
					<g>
						<g>
							<g>
								<g>
									<g>
										<g>
											<g>
												<path class="st6" d="M321.1,424.8c-0.1,0.1-0.6-0.7-0.4-1.7c0.2-1,0.9-1.6,1-1.4c0.1,0.1-0.2,0.7-0.4,1.6
													C321.2,424.1,321.3,424.8,321.1,424.8z"/>
											</g>
										</g>
									</g>
								</g>
							</g>
						</g>
					</g>
				</g>
				<g>
					<g>
						<g>
							<g>
								<g>
									<g>
										<g>
											<g>
												<path class="st6" d="M312.8,416.6c0,0.2-0.8,0.1-1.8,0.4c-0.9,0.3-1.6,0.8-1.7,0.7c-0.1-0.1,0.4-0.9,1.5-1.2
													C311.9,416.1,312.9,416.5,312.8,416.6z"/>
											</g>
										</g>
									</g>
								</g>
							</g>
						</g>
					</g>
				</g>
			</g>
			<g>
				<g>
					<g>
						<g>
							<g>
								<g>
									<g>
										<g>
											<path class="st6" d="M312,413.1c0,0.1-0.6,0.3-1.7,0.4c-0.5,0-1.2,0-1.9-0.1c-0.4-0.1-0.7-0.1-1.1-0.3
												c-0.2-0.1-0.4-0.1-0.6-0.3c-0.2-0.1-0.4-0.5-0.3-0.9c0.1-0.3,0.4-0.5,0.6-0.6c0.2-0.1,0.5-0.1,0.7-0.1
												c0.4,0,0.8,0,1.1,0.1c0.7,0.1,1.3,0.4,1.8,0.6c1,0.5,1.4,1.1,1.3,1.1c-0.1,0.1-0.6-0.3-1.5-0.7c-0.5-0.2-1.1-0.4-1.7-0.5
												c-0.3,0-0.7-0.1-1-0.1c-0.4,0-0.7,0.1-0.7,0.3c0,0.1,0,0.1,0.1,0.2c0.1,0.1,0.3,0.1,0.5,0.2c0.3,0.1,0.7,0.2,1,0.3
												c0.7,0.1,1.3,0.2,1.8,0.2C311.3,413.1,311.9,413,312,413.1z"/>
										</g>
									</g>
								</g>
							</g>
						</g>
					</g>
				</g>
			</g>
			<g>
				<g>
					<g>
						<g>
							<g>
								<g>
									<g>
										<g>
											<path class="st6" d="M311.8,413.4c-0.1,0-0.5-0.5-0.9-1.5c-0.2-0.5-0.3-1.2-0.2-1.9c0-0.4,0.1-0.7,0.2-1.1
												c0.1-0.4,0.2-0.9,0.9-1.1c0.3-0.1,0.7,0.1,0.8,0.3c0.2,0.2,0.2,0.4,0.3,0.6c0.2,0.4,0.3,0.8,0.3,1.1
												c0.1,0.7-0.1,1.4-0.3,1.9c-0.4,1-1.1,1.4-1.1,1.4c-0.1-0.1,0.4-0.5,0.7-1.5c0.1-0.5,0.2-1.1,0.1-1.7c0-0.3-0.1-0.7-0.3-1
												c-0.1-0.3-0.4-0.6-0.5-0.5c-0.2,0-0.4,0.4-0.5,0.7c-0.1,0.3-0.2,0.7-0.2,1c-0.1,0.7,0,1.3,0.1,1.8
												C311.6,412.8,311.9,413.3,311.8,413.4z"/>
										</g>
									</g>
								</g>
							</g>
						</g>
					</g>
				</g>
			</g>
		</g>
	</g>
	<g>
		<g>
			<g>
				<path class="st9" d="M236.9,331.4l-30.5,88l-15.1-1.7c0,0,2.9-52.5,6.8-62.1c3.9-9.5,11.1-26.8,11.1-26.8L236.9,331.4z"/>
			</g>
		</g>
		<g>
			<g>
				<g>
					<g>
						<g>
							<g>
								<g>
									<g>
										<g>
											<path class="st5" d="M209,413.5l-4,17.5c0,0,16.7,8.7,16.3,12l-34.5-5.3l4.4-27.7L209,413.5z"/>
										</g>
									</g>
								</g>
							</g>
						</g>
					</g>
				</g>
				<g class="st11">
					<g>
						<g>
							<g>
								<g>
									<g>
										<g>
											<g>
												<path class="st12" d="M194.7,427.5c-0.7,0.1-1.3,0.7-1.3,1.4c0,0.7,0.7,1.3,1.4,1.3c0.7,0,1.4-0.8,1.3-1.5
													c-0.1-0.7-0.9-1.4-1.6-1.2"/>
											</g>
										</g>
									</g>
								</g>
							</g>
						</g>
					</g>
				</g>
				<g>
					<g>
						<g>
							<g>
								<g>
									<g>
										<g>
											<path class="st6" d="M186.8,437.8l0.5-2.8l33.1,6.3c0,0,1,0.7,1,2.1L186.8,437.8z"/>
										</g>
									</g>
								</g>
							</g>
						</g>
					</g>
				</g>
				<g>
					<g>
						<g>
							<g>
								<g>
									<g>
										<g>
											<g>
												<path class="st6" d="M205.6,431c0,0.2-0.9,0.1-1.8,0.5c-0.9,0.4-1.5,1-1.6,0.9c-0.1-0.1,0.3-1,1.4-1.5
													C204.7,430.4,205.7,430.8,205.6,431z"/>
											</g>
										</g>
									</g>
								</g>
							</g>
						</g>
					</g>
				</g>
				<g>
					<g>
						<g>
							<g>
								<g>
									<g>
										<g>
											<g>
												<path class="st6" d="M208.9,433.2c0,0.2-0.8,0.3-1.5,0.9c-0.7,0.6-1,1.3-1.2,1.3c-0.2,0-0.1-1,0.8-1.7
													C208,432.9,209,433,208.9,433.2z"/>
											</g>
										</g>
									</g>
								</g>
							</g>
						</g>
					</g>
				</g>
				<g>
					<g>
						<g>
							<g>
								<g>
									<g>
										<g>
											<g>
												<path class="st6" d="M210.2,437.9c-0.2,0-0.2-0.9,0.4-1.7c0.6-0.8,1.5-1,1.5-0.9c0.1,0.2-0.5,0.6-1,1.2
													C210.5,437.2,210.3,437.9,210.2,437.9z"/>
											</g>
										</g>
									</g>
								</g>
							</g>
						</g>
					</g>
				</g>
				<g>
					<g>
						<g>
							<g>
								<g>
									<g>
										<g>
											<g>
												<path class="st6" d="M206.1,426.9c-0.1,0.1-0.8-0.2-1.8-0.4c-1-0.1-1.8,0-1.8-0.1c-0.1-0.1,0.8-0.6,1.9-0.5
													C205.5,426.1,206.2,426.8,206.1,426.9z"/>
											</g>
										</g>
									</g>
								</g>
							</g>
						</g>
					</g>
				</g>
			</g>
			<g>
				<g>
					<g>
						<g>
							<g>
								<g>
									<g>
										<g>
											<path class="st6" d="M206.8,423.3c0,0.1-0.7,0-1.7-0.3c-0.5-0.2-1.1-0.5-1.7-0.9c-0.3-0.2-0.6-0.4-0.9-0.7
												c-0.1-0.1-0.3-0.3-0.4-0.5c-0.2-0.2-0.2-0.7,0.1-0.9c0.2-0.2,0.6-0.3,0.8-0.2c0.3,0,0.4,0.1,0.6,0.2
												c0.4,0.2,0.7,0.4,1,0.6c0.6,0.4,1.1,0.9,1.4,1.3c0.7,0.9,0.8,1.6,0.7,1.6c-0.1,0-0.4-0.6-1.1-1.3
												c-0.3-0.4-0.8-0.8-1.4-1.2c-0.3-0.2-0.6-0.3-0.9-0.5c-0.3-0.2-0.7-0.2-0.8-0.1c0,0.1-0.1,0.1,0,0.2
												c0.1,0.1,0.2,0.2,0.3,0.4c0.3,0.3,0.5,0.5,0.8,0.7c0.5,0.4,1.1,0.7,1.5,1C206.2,423.1,206.9,423.2,206.8,423.3z"/>
										</g>
									</g>
								</g>
							</g>
						</g>
					</g>
				</g>
			</g>
			<g>
				<g>
					<g>
						<g>
							<g>
								<g>
									<g>
										<g>
											<path class="st6" d="M206.6,423.5c-0.1,0-0.3-0.6-0.1-1.7c0.1-0.5,0.3-1.2,0.6-1.8c0.2-0.3,0.4-0.6,0.6-1
												c0.3-0.3,0.6-0.7,1.3-0.7c0.3,0.1,0.6,0.4,0.6,0.6c0.1,0.3,0.1,0.5,0.1,0.7c0,0.4-0.1,0.8-0.2,1.2
												c-0.2,0.7-0.7,1.3-1.1,1.6c-0.8,0.8-1.6,0.8-1.6,0.8c0-0.1,0.6-0.3,1.3-1.1c0.3-0.4,0.7-0.9,0.9-1.5
												c0.1-0.3,0.2-0.6,0.2-1c0-0.4-0.1-0.7-0.2-0.7c-0.2,0-0.5,0.2-0.7,0.4c-0.2,0.3-0.4,0.6-0.6,0.8
												c-0.3,0.6-0.5,1.2-0.7,1.6C206.6,422.9,206.7,423.5,206.6,423.5z"/>
										</g>
									</g>
								</g>
							</g>
						</g>
					</g>
				</g>
			</g>
		</g>
	</g>
	<g>
		<g>
			<g>
				<path class="st6" d="M282.8,244.4l-44.9-1.7c0,0-1.1,27.3-1,34.5c0.1,7.2,14.2,28.2,14.2,28.2l13.3,31.4l36.1-10.8l-6.9-49.1
					c0,0-9.1-26.3-10.5-31.6C282.9,244.7,282.8,244.4,282.8,244.4"/>
			</g>
		</g>
		<g>
			<g>
				<path class="st6" d="M259.4,289.7c-0.1,0.1-22.5,48.1-22.5,48.1l-35.1-9.3l14.3-43.9c0,0,1.3-22.3,2.1-27.4
					c0.8-5.1,0.9-6.1,0.9-6.1l20.5-11.2l32.4,7C272.1,246.8,264.1,279.6,259.4,289.7z"/>
			</g>
		</g>
		<g>
			<g>
				<g>
					<path class="st7" d="M264.3,279.1c-0.1,0-0.9,1.5-2.2,4.1c-1.3,2.6-3,6.1-4.8,10.1c-1.8,4-3.5,7.6-4.6,10.2
						c-1.2,2.6-1.8,4.3-1.7,4.3c0.1,0,0.9-1.5,2.2-4.1c1.3-2.6,3-6.1,4.8-10.1c1.8-4,3.5-7.6,4.6-10.2
						C263.7,280.8,264.4,279.1,264.3,279.1z"/>
				</g>
			</g>
		</g>
		<g>
			<g>
				<g>
					<path class="st7" d="M213.2,293.6c-0.1,0.2,3.6,1.8,8.3,3.5c4.7,1.6,8.6,2.6,8.7,2.4c0.1-0.2-3.8-1.5-8.5-3.1
						C217,294.8,213.3,293.4,213.2,293.6z"/>
				</g>
			</g>
		</g>
		<g>
			<g>
				<g>
					<path class="st7" d="M211.5,300.7c0,0.1,1.1,0.8,3.2,1.8c2,1,4.9,2.2,8.2,3.1c0.8,0.2,1.6,0.5,2.4,0.7c0.4,0.1,0.8,0.2,1.2,0.3
						c0.4,0.1,0.8,0.2,1.3,0c0.5-0.2,0.8-0.5,0.9-0.9c0.2-0.3,0.3-0.7,0.4-1c0.2-0.6,0.4-1.2,0.6-1.8c0.5-2.2,0.5-3.6,0.4-3.6
						c-0.1,0-0.2,1.4-0.9,3.5c-0.2,0.5-0.4,1.1-0.6,1.7c-0.2,0.6-0.5,1.3-1.1,1.4c-0.5,0.2-1.3-0.2-2.1-0.3
						c-0.8-0.2-1.6-0.4-2.4-0.7c-3.3-0.9-6.2-2.1-8.2-2.9C212.8,301.2,211.5,300.7,211.5,300.7z"/>
				</g>
			</g>
		</g>
		<g>
			<g>
				<g>
					<path class="st7" d="M205.7,319.6c0,0,0.3,0.3,0.9,0.8c0.6,0.5,1.5,1.1,2.7,1.8c1.2,0.7,2.7,1.4,4.5,1.7c1.8,0.3,4-0.1,5.8-1.3
						c1.8-1.2,3.1-2.8,4-4.4c0.9-1.6,1.4-3.2,1.8-4.5c0.4-1.3,0.6-2.4,0.7-3.1c0.1-0.7,0.2-1.2,0.1-1.2c-0.1,0-0.5,1.6-1.3,4.2
						c-0.4,1.3-1,2.8-1.8,4.3c-0.9,1.5-2.1,3-3.8,4.1c-1.7,1.1-3.6,1.5-5.4,1.2c-1.7-0.2-3.2-0.9-4.4-1.5
						C207.1,320.6,205.7,319.5,205.7,319.6z"/>
				</g>
			</g>
		</g>
		<g>
			<g>
				<g>
					<path class="st6" d="M267.2,271.3c0.1,0,0.5-1.1,0.9-3c0.5-1.9,1-4.4,1.3-7.3c0.3-2.9,0.4-5.5,0.4-7.4c0-1.9-0.2-3.1-0.2-3.1
						c-0.1,0-0.1,1.2-0.2,3.1c-0.1,1.9-0.3,4.5-0.6,7.4c-0.3,2.9-0.7,5.5-1.1,7.3C267.3,270.1,267.1,271.3,267.2,271.3z"/>
				</g>
			</g>
		</g>
		<g>
			<g>
				<g>
					<path class="st7" d="M221.8,254.3c-0.1,0-0.2,1,0.3,2.5c0.5,1.5,1.8,3.5,4,4.6c2.2,1.1,4.6,1,6.1,0.5c1.5-0.5,2.3-1.2,2.2-1.2
						c-0.1-0.1-0.9,0.4-2.3,0.8c-1.4,0.4-3.6,0.4-5.7-0.6c-2-1-3.3-2.8-3.9-4.2C222,255.3,221.9,254.3,221.8,254.3z"/>
				</g>
			</g>
		</g>
		<g>
			<g>
				<g>
					<path class="st7" d="M278.6,250.5c-0.1,0,0,1.3,0.5,3.2c0.5,1.9,1.6,4.6,3.3,7.1c1.7,2.6,3.8,4.5,5.4,5.7
						c1.6,1.2,2.8,1.7,2.8,1.7c0.1-0.2-4.3-2.7-7.7-7.7C279.5,255.4,278.8,250.4,278.6,250.5z"/>
				</g>
			</g>
		</g>
		<g>
			<g>
				<g>
					<path class="st7" d="M264.7,251.6c0,0-0.2-0.1-0.5,0c-0.3,0.1-0.8,0.3-1.2,0.7c-0.3,0.5-0.7,1.2-0.4,2.1
						c0.3,0.8,1.1,1.4,2.1,1.5c1,0,1.8-0.8,2-1.5c0.3-0.8,0-1.6-0.4-2C265.5,251.3,264.6,251.5,264.7,251.6c0,0.1,0.7,0.1,1.3,1
						c0.3,0.4,0.4,1,0.2,1.5c-0.2,0.6-0.8,1.1-1.5,1.1c-0.6,0-1.3-0.5-1.5-1c-0.2-0.5-0.1-1.1,0.2-1.5
						C263.9,251.7,264.7,251.7,264.7,251.6z"/>
				</g>
			</g>
		</g>
	</g>
	<g>
		<g>
			<g>
				<g>
					<path class="st5" d="M276.3,133.9c0,0,13,8.3,14.6,13.5c1.6,5.2,5.4,32.2,5.4,32.2l-18.9,6.3
						C277.4,186,275.9,133.2,276.3,133.9z"/>
				</g>
			</g>
		</g>
	</g>
	<g>
		<g>
			<path class="st5" d="M276.3,133.9c0,0,6.1,22.3,6.5,30.8c0.4,8.5-1.2,42.5-1.2,42.5s-2.5,14.3-1.5,17c1,2.7,6.2,16.6,6,24.3h-18
				c0,0-16.8-1.4-32.8-1.9c-9-0.3-17.8,5.4-17.8,5.4s-3.1-11.4,0-25.9c3.1-14.5,2.3-30.7,2.3-30.7c-0.1,6.5,1.9-18.4,4.9-53.6
				c0.8-9.3,2.6-18.3,11.7-18.9h15.3C260.7,131.6,270.4,137.5,276.3,133.9z"/>
		</g>
	</g>
	<g>
		<g>
			<path class="st7" d="M279.5,136.1c5.1-2.3,7.7,1.5,8.1,2.4c0.4,0.8,0.5,1.8,0.6,2.7c0.6,8.4-2.6,28.9-5.1,36.9l-0.9-39.9
				L279.5,136.1z"/>
		</g>
	</g>
	<g class="st13">
		<path d="M251.9,155.1c-3.1,8.4-6.3,16.9-12,23.7c-2.8,3.3-6.1,6.1-8.4,9.7c-2.1,3.2-3.2,6.9-4.8,10.4c-1.5,3.5-3.6,6.9-6.9,8.9
			l0.2-20.3l10.7-25L251.9,155.1z"/>
	</g>
	<g>
		<path class="st6" d="M279.7,218.4c0,0,0-0.2,0-0.6c0-0.4,0.1-1,0.2-1.6c0.2-1.4,0.4-3.4,0.7-6c0.5-5,1.2-12,1.5-19.7
			c0.4-7.7,0.4-14.7,0.4-19.8c0-2.5-0.1-4.6-0.1-6c0-0.7,0-1.2,0-1.6c0-0.4,0-0.6,0-0.6c0,0,0,0.2,0.1,0.6c0,0.4,0.1,1,0.1,1.6
			c0.1,1.4,0.2,3.5,0.3,6c0.2,5.1,0.2,12.1-0.2,19.8c-0.4,7.7-1,14.7-1.7,19.8c-0.3,2.5-0.6,4.6-0.8,6c-0.1,0.7-0.2,1.2-0.3,1.6
			C279.8,218.2,279.7,218.4,279.7,218.4z"/>
	</g>
	<g>
		<path class="st6" d="M239.5,214c0,0,0.5,0.1,1.2,0.5c0.9,0.4,2,0.9,3.3,1.4c2.8,1.2,6.6,2.8,11,4.2c4.4,1.5,8.4,2.6,11.3,3.3
			c1.4,0.3,2.5,0.6,3.5,0.8c0.8,0.2,1.3,0.3,1.3,0.4c0,0-0.5,0-1.3-0.2c-0.8-0.1-2-0.4-3.5-0.7c-3-0.6-7-1.7-11.4-3.1
			c-4.4-1.5-8.2-3.1-11-4.4c-1.4-0.6-2.5-1.2-3.2-1.6C239.9,214.3,239.5,214,239.5,214z"/>
	</g>
	<g>
		<g>
			<path class="st7" d="M233,120.7c2.8-1.4,6.1-1.8,9.2-1.3c3,0.5,6.9,1.9,9.3,5.5c4.5,6.6,7,14.1,3,25.1c-4.9,13.6-23,31.7-23,31.7
				l14.8-29.1c3-5.8,3.8-12.6,2.1-18.9c-1.3-4.9-4.1-9.4-9.8-9.8c-4-1-7.9,0.5-11.7,3.9C227.2,125.7,229,122.7,233,120.7z"/>
		</g>
	</g>
	<g>
		<path class="st14" d="M260.5,179c-0.1,0.5-0.4,0.8-0.8,1c-1.7,0.9-4.2,0.7-4.5,0.8c-0.6,0.1,0.7,1.1,1.6,1.3
			c1,0.3,1.8,0.4,2.9-0.2c0.6-0.4,0.7-0.8,1.5-0.8c0.9,0,0.2,1.3-1.1,1.3c-0.4,0-1.3,0-1.8,0.1c-0.2,0.1-0.3,0.2-0.1,0.3
			c0.7,0.7,1.4,0.9,1.7,1c2.7,0.4,3.4-2.7,4-4.2c0.1-0.4,0.2-0.8,0.2-1.2c0.8-4,1.5-7.7,2.1-10.3c0.6-2.6,1-4.2,1.1-4.2
			c0.1,0-0.1,1.7-0.5,4.3c-0.4,2.6-1.1,6.3-1.8,10.3c-0.3,1.4-0.5,2.8-0.9,4.1c0,0.1,0,0.1,0,0.2c0.4,1.4,1.6,2.2,2.5,2.5
			c0.1,0,0.2,0.1,0.3,0.1c1.6,0.3,2.1-0.1,2.7-0.8c0.1-0.1,0-0.3-0.1-0.3c-0.7,0-1.3,0.2-2.1-0.7c-0.7-0.8-1-2.3-0.4-2.2
			c1.4,0.1,1.9,2.2,3.7,2.8c0.9,0.3,1.6,0.1,2.3-0.5c0.2-0.1,0.3-0.3,0.4-0.5c0.3-0.5-0.2-0.2-1.4-0.5c-1.1-0.3-1.6-0.8-2.1-1.5
			c-1-1.5-1.8-1.6-1.5-1.8c0.5-0.3,1.8,0.9,3.2,1.1c1.1,0.2,2.4,0,3.1-0.7c0.3-0.3,0.4-0.6,0.6-1.2c0.3-0.8,0.1-1.6-0.2-2.4
			c-0.1-0.2-0.3-0.1-0.3,0c-0.1,0.5-0.6,1.3-1.3,1.8c-1.1,0.8-3.8,0.7-4.5-0.7c-0.2-0.4,0.2-0.6,0.7-0.7c1.5-0.2,2.5,0.6,5.1-0.8
			c0.9-0.5,1.6-1.2,1.9-2.2c0.1-0.3,0.2-0.8,0.2-1.1c0-0.2-0.3-0.2-0.5-0.2c-0.7,0.2-1.1,0.6-2.1,1.3c-0.6,0.4-1.8,1.2-2.6,1.5
			c-1,0.4-2.3-0.3-1.8-0.7c1.1-0.9,2.2-0.4,3.6-1.1c1.6-0.7,3.1-2.1,3.2-3.8c0-0.6-0.1-1.4-0.1-2c0-0.3-0.2-0.3-0.3-0.2
			c-0.2,0.2-0.2,0.5-2.1,2c-0.5,0.4-0.9,0.9-1.4,1.6c-1.6,2-3.9,1.6-3.5,0.8c0.8-1.7,5.7-1.7,5.9-5.8c0-0.4-0.1-2.4-0.5-1.9
			c-0.1,0.1-0.1,0.1-0.1,0.2c-0.5,0.6-0.4,0.7-1.3,1.2c-1.9,1.1-1.8,1.7-2.9,3.3c-0.4,0.6-1.1,0.8-1.6,0.7c-0.5,0-0.3-0.6,0-1
			c1.1-1.6,4.7-2.4,4.7-5.7c0-0.6-0.3-2.1-0.7-1.5c-0.2,0.3-0.4,1.5-1.9,2.5c-0.5,0.3-0.9,0.5-1.5,1.4c-0.1,0.2-0.4,0.6-0.6,0.5
			c-0.2-0.1-0.1-0.3,0-0.8c0.1-0.4,1.2-1.5,1.6-1.9c0.7-0.7,1.2-1.2,1.5-2.2c0.3-1-0.4-1.9-0.6-1.4c-0.2,0.7-0.6,2.8-2,3.2
			c-0.1,0-0.2,0-0.2-0.1c-0.3-0.3-0.1-0.6,0.1-1c0.5-0.8,1-1.3,1-3.5c0-0.2,0-0.4-0.4-0.4c-1.6,0.3-2.7-0.3-3.1,1.4
			c-0.4,1.9,0.6,2.8,0.2,3.6c-0.1,0.1-0.2,0.2-0.3,0.1c-0.2-0.1-0.3-0.2-0.5-0.4c-0.6-0.9-0.8-2.3-0.8-3.4c0-0.8,0-0.7,0.1-0.9
			c0-0.1,0.1-0.1,0-0.2c-0.2-0.2-1.3,0.5-1.5,1.8c-0.1,0.6,0,1.7,0.2,2.7c0.3,1,0.3,1.1,0.9,2.4c0.2,0.4,0.2,1.2-0.2,1
			c-1.4-0.3-1.9-2.8-2.3-4.1c-0.3-1-0.5-1.1-0.9-2.6c0-0.1,0-0.1,0-0.2c-0.2-0.6-0.8,0.9-1,1.5c-0.2,0.6-0.1,1.6,0.1,2.2
			c0.7,3.6,2.6,4.2,3.1,6c0.1,0.2,0,0.4-0.2,0.4c-0.5,0.1-1-0.2-1.5-0.5c-2.3-1.6-3-4.1-3-6.9c0-0.9-2.5,1.2-2,3.2
			c0.5,1.9,1.4,2.9,3.3,4.9c0.5,0.6,0.8,0.7,1,1.2c0.1,0.2,0.1,0.4-0.1,0.4c-1.8-0.1-2.3-2.3-3.2-3.5c-1-1.3-1.4-1.6-1.5-2.2
			c-0.1-0.8-1.1,0.3-1.3,1.1c-0.4,1.1-0.1,2.1,0.6,3c2.5,3.2,4.1,3,4.5,4c0.1,0.1,0,0.2-0.1,0.2c-0.9,0.1-1.4-0.4-2.4-0.6
			c-0.2-0.1-0.5-0.1-0.7-0.2c-1.9-0.7-2.8-4.3-3.4-3.6c-0.1,0.1-0.4,0.7-0.5,1c-0.5,1.3,0.7,3.1,1.9,4c0.5,0.4,1.1,0.5,1.8,0.8
			c1.1,0.3,0.7,0.1,2.3,0.9c0.4,0.2,0.8,0.5,0.5,0.7c-0.5,0.4-0.9,0.6-2,0.5c-0.2,0-0.5-0.1-0.7-0.2c-1.1-0.5-1.6-1.2-2.8-1.9
			c-0.2-0.1-0.5-0.2-0.7-0.3c0,0-0.1,0-0.2,0c-0.3,0-0.3,0.1-0.3,0.3c0,0.6,0.3,1.4,0.5,1.8c0.3,0.5,0.7,1,1.1,1.3
			c0.5,0.3,1,0.5,1.6,0.6c0.3,0.1,0.6,0.1,0.9,0.1C258.8,179,260.6,177.9,260.5,179z M267.4,176.8c0.1,0.1,0.3,0.3,0.1,0.5
			c-0.3,0.3-1,0.1-1.2-0.1C265.8,176.8,266.6,176.4,267.4,176.8z M267.4,174.4c0.1,0.1,0.3,0.1,0.4,0.2c0.3,0.2,0.7,0.6,0.3,1
			c-0.7,0.6-2.5,0-1.9-0.9C266.5,174.4,267,174.4,267.4,174.4z M268.2,172.6c0.3,0.2,0.2,0.6-0.1,0.7c-0.5,0.2-0.8,0.2-1.2,0.1
			C266.1,173.1,267.1,171.9,268.2,172.6z M268.5,170.3c-0.3,0.4-0.8,0.6-1.3,0.5c-0.5-0.1-0.2-0.8,0.7-0.9
			C268.2,169.8,268.6,170,268.5,170.3z M264.6,171.4c-2-0.3-1.5-2.4,0.2-0.8c0.1,0.1,0.2,0.3,0.2,0.5
			C265,171.3,264.7,171.4,264.6,171.4z M262.4,173.1c-0.5-0.5-0.1-1.1,0.5-1c0.7,0.1,2,0.9,1.6,1.5
			C264,174.2,262.9,173.7,262.4,173.1z M262.2,175.5c-0.1,0-0.1-0.1-0.2-0.2c-0.1-0.1-0.1-0.2-0.2-0.3c-0.1-0.4,0.3-0.5,0.6-0.4
			c0.6,0.1,1,0.2,1.5,0.7c0.2,0.2,0.1,0.5-0.1,0.6C263.4,176,262.8,175.9,262.2,175.5z M261.4,176.5c0.2-0.1,0.4,0,0.6,0
			c0,0,0,0,0,0c1.1,0.2,1.3,0.9,0.9,1.1c-0.4,0.2-1.1-0.1-1.5-0.4C261.1,177,261.2,176.7,261.4,176.5z"/>
		<g>
			<path class="st12" d="M246,187.3c0-0.1,0.9,0.7,2.9,1c1,0.1,2.2,0.1,3.5-0.3c0.6-0.2,1.4-0.5,1.7-1.1c0.1-0.3,0.1-0.7-0.1-1
				c-0.2-0.3-0.6-0.2-0.9,0c-0.3,0.2-0.5,0.6-0.6,1c-0.1,0.4-0.1,0.9,0,1.3c0.2,0.9,0.7,1.8,1.4,2.4c0.7,0.6,1.8,0.9,2.8,0.9
				c1-0.1,2.1-0.6,2.7-1.5c0.3-0.4,0.5-1,0.3-1.5c-0.1-0.5-0.5-1-1-1.1c-0.5-0.2-1,0-1.3,0.5c-0.3,0.5-0.4,1.1-0.3,1.7
				c0.4,2.3,2.4,4.7,5,4.7c1.2,0,2.5-0.7,3.2-1.7c0.4-0.5,0.6-1.1,0.6-1.7c0-0.6-0.1-1.2-0.5-1.6c-0.4-0.4-0.9-0.4-1.2,0
				c-0.3,0.4-0.4,1-0.4,1.6c-0.1,1.2,0.2,2.3,0.7,3.3c1.1,2,3.6,2.7,5.4,1.8c1.8-0.9,2.3-3.3,1.3-4.6c-0.4-0.7-1.3-1.1-2-0.9
				c-0.7,0.1-1,0.9-1,1.6c0,0.7,0.2,1.3,0.5,1.8c0.3,0.5,0.6,1,0.9,1.3c1.3,1.5,2.4,1.8,2.4,1.8c0,0-0.1,0-0.2-0.1
				c-0.1,0-0.3-0.1-0.5-0.2c-0.5-0.2-1.1-0.7-1.8-1.4c-0.3-0.4-0.7-0.8-1-1.4c-0.3-0.5-0.5-1.2-0.6-1.9c0-0.4,0.1-0.8,0.2-1.1
				c0.2-0.4,0.6-0.7,1-0.8c0.9-0.2,1.8,0.3,2.3,1.1c1.1,1.5,0.6,4.2-1.5,5.2c-2,1-4.8,0.2-6-2c-0.6-1-0.9-2.3-0.8-3.6
				c0-0.6,0.1-1.3,0.5-1.9c0.2-0.3,0.6-0.6,1-0.6c0.4,0,0.8,0.2,1,0.5c1,1.1,0.7,2.8-0.1,3.9c-0.8,1.1-2.1,1.9-3.6,1.9
				c-1.4,0-2.8-0.7-3.7-1.7c-0.9-1-1.6-2.2-1.8-3.5c-0.1-0.7,0-1.4,0.4-2c0.4-0.6,1.2-0.9,1.9-0.7c0.7,0.3,1.1,0.8,1.3,1.5
				c0.1,0.7-0.1,1.3-0.4,1.9c-0.7,1-1.9,1.6-3.1,1.6c-1.2,0.1-2.3-0.3-3.1-1c-0.8-0.7-1.4-1.7-1.5-2.7c-0.1-0.5-0.1-1,0-1.5
				c0.1-0.5,0.4-0.9,0.8-1.2c0.2-0.2,0.4-0.3,0.7-0.3c0.3,0,0.5,0.1,0.7,0.3c0.3,0.4,0.3,0.9,0.1,1.3c-0.5,0.8-1.3,1-1.9,1.3
				c-1.4,0.4-2.6,0.4-3.6,0.2c-1-0.2-1.7-0.5-2.2-0.7C246.2,187.5,246,187.3,246,187.3z"/>
		</g>
	</g>
	<g>
		<g>
			<g>
				<g>
					<path class="st9" d="M240.1,155.5c-0.3,0.7-22.3,42.7-22.3,42.7l-5.8,61.2l-13.2-1.7c0,0-4.3-55.1-1.4-63.5
						c2.9-8.4,17.5-46,17.5-46s12.7-26.8,21.2-24.1C244.6,126.7,247.6,138.1,240.1,155.5z"/>
				</g>
			</g>
			<g>
				<g>
					<path class="st5" d="M241.8,124.4c0,0,6.9,7.6,7.1,16.1c0.2,8.5-17.4,41.2-17.4,41.2l-28.8-15.5
						C202.7,166.3,225.7,112.8,241.8,124.4z"/>
				</g>
			</g>
			<g>
				<g>
					<g>
						<path class="st9" d="M212.2,258.3l3.3,14.6l-2.5,13c0,0-3.7,0.1-2.9-2.6c0,0-1.9,1.4-2.9,0.7c-1-0.8-1.3-2.1-1.3-2.1
							s-1.2,1.8-2.8,0.8c-1.5-1.1-1.4-1.8-1.4-2.2c0-0.3-1.2,0-2.2-0.8c-1-0.8-0.6-2-0.6-2s-2-0.2-2.4-0.9c-0.4-0.7-0.5-2.1-0.5-2.1
							s-0.2-3.5,0.4-3.9c0.5-0.4,1.5-0.1,1.5-0.1l0.2-2.5c0,0-1-3.9-0.7-5.4c0.2-1.5,2.2-7.8,2.2-7.8L212.2,258.3z"/>
					</g>
				</g>
				<g>
					<g>
						<g>
							<path class="st10" d="M214.5,278.5c-0.1-0.1-1.3,0.9-2.6,2.4c-1.3,1.4-2.3,2.7-2.1,2.8c0.1,0.1,1.3-0.9,2.6-2.4
								C213.7,279.9,214.7,278.6,214.5,278.5z"/>
						</g>
					</g>
				</g>
				<g>
					<g>
						<g>
							<path class="st10" d="M210.6,276.5c-0.2-0.1-1.2,1.3-2.6,2.9c-1.4,1.6-2.8,2.7-2.7,2.9c0.1,0.1,1.7-0.8,3.2-2.4
								C210,278.2,210.8,276.6,210.6,276.5z"/>
						</g>
					</g>
				</g>
				<g>
					<g>
						<g>
							<path class="st10" d="M206.6,275.9c-0.2-0.1-1.2,1.1-2.6,2.4c-1.4,1.4-2.6,2.4-2.5,2.6c0.1,0.1,1.5-0.7,2.9-2.1
								C205.9,277.4,206.7,276,206.6,275.9z"/>
						</g>
					</g>
				</g>
				<g>
					<g>
						<g>
							<path class="st10" d="M203.8,272.9c-0.2-0.1-1.2,1.1-2.6,2.4c-1.4,1.4-2.6,2.4-2.5,2.6c0.1,0.1,1.5-0.7,2.9-2.1
								C203.1,274.4,204,273,203.8,272.9z"/>
						</g>
					</g>
				</g>
				<g>
					<g>
						<g>
							<path class="st10" d="M198.3,274.7c0.2,0,0.4-1,0.2-2.3c-0.1-1.3-0.6-2.2-0.7-2.1c-0.2,0.1-0.1,1,0.1,2.2
								C198,273.8,198.1,274.7,198.3,274.7z"/>
						</g>
					</g>
				</g>
			</g>
		</g>
	</g>
	<g>
		<path class="st6" d="M247.4,150c0,0-0.1,0.2-0.3,0.6c-0.2,0.5-0.5,1.1-0.8,1.8c-0.8,1.6-1.9,3.8-3.2,6.6
			c-2.8,5.6-6.6,13.2-10.8,21.6c-0.2,0.4-0.4,0.9-0.6,1.3l-0.1,0.2l-0.2-0.1c-8-4.3-15.1-8.2-20.4-11c-2.5-1.4-4.6-2.5-6.1-3.4
			c-0.7-0.4-1.2-0.7-1.6-0.9c-0.4-0.2-0.6-0.3-0.6-0.4c0,0,0.2,0.1,0.6,0.3c0.4,0.2,1,0.5,1.7,0.9c1.5,0.8,3.6,1.9,6.2,3.2
			c5.3,2.8,12.4,6.6,20.4,10.9l-0.4,0.1c0.2-0.4,0.4-0.8,0.6-1.3c4.2-8.4,8.1-15.9,10.9-21.5c1.4-2.7,2.5-4.9,3.4-6.5
			c0.4-0.7,0.7-1.3,0.9-1.8C247.3,150.2,247.4,150,247.4,150z"/>
	</g>
	<path class="st6" d="M198.1,268.2l-7.3-3.2c-1-0.4-2.1,0-2.5,0.9l0,0c-0.5,1,0,2.2,1,2.6l9.4,4.1L198.1,268.2z"/>
	<g>
		<path class="st0" d="M390.3,381.8c0,0-0.2,0.2-0.5,0.7c-0.4,0.4-0.9,1-1.7,1.8c-0.8,0.8-1.7,1.7-2.9,2.6c-1.2,0.9-2.7,1.9-4.6,2.5
			c-1.8,0.6-4.1,0.7-6.3-0.2c-2.1-0.9-3.9-2.7-6-4c-1-0.7-2.2-1.3-3.5-1.4c-1.3-0.1-2.6,0.1-3.8,0.7c-2.5,1.1-4.5,3.2-6.9,4.9
			c-1.2,0.8-2.5,1.6-4,1.9c-0.7,0.1-1.5,0.1-2.2,0c-0.7-0.1-1.4-0.4-2-0.7c-2.5-1.5-4-3.8-6.1-5.1c-1-0.7-2.2-1-3.4-1
			c-1.2,0-2.3,0.4-3.2,0.9c-2,1-3.5,2.5-5,3.7c-1.5,1.2-3,2.2-4.5,2.7c-1.5,0.4-2.9,0.4-3.9,0.1c-1.1-0.3-1.7-0.9-2.1-1.3
			c-0.2-0.2-0.3-0.4-0.4-0.5c-0.1-0.1-0.1-0.2-0.1-0.2c0,0,0.2,0.3,0.6,0.7c0.4,0.4,1.1,0.9,2.1,1.2c1,0.3,2.4,0.3,3.8-0.1
			c1.4-0.5,2.9-1.5,4.3-2.7c1.5-1.2,3-2.7,5-3.8c1-0.5,2.2-0.9,3.4-1c1.3-0.1,2.5,0.3,3.6,1c2.2,1.4,3.8,3.7,6.1,5.1
			c0.6,0.3,1.2,0.6,1.9,0.7c0.7,0.1,1.3,0.1,2,0c1.3-0.3,2.6-1,3.8-1.8c2.4-1.6,4.4-3.7,7-4.9c1.3-0.6,2.7-0.9,4.1-0.7
			c1.4,0.2,2.6,0.8,3.7,1.5c2.1,1.4,3.9,3.1,5.9,4c2,0.9,4.2,0.8,6,0.3c1.8-0.6,3.3-1.5,4.5-2.4c1.2-0.9,2.2-1.8,3-2.5
			c0.8-0.7,1.4-1.3,1.8-1.7C390.1,381.9,390.3,381.7,390.3,381.8z"/>
	</g>
</g>
<g id="Ball">
	<g>
		<g>
			<g>
				<g>
					<path class="st5" d="M450.4,413.5c-4.3,21.4-25.2,35.1-46.5,30.8c-21.4-4.3-35.1-25.2-30.8-46.5c4.3-21.4,25.3-35.8,46.5-30.8
						C440.5,371.9,454.8,392.1,450.4,413.5z"/>
				</g>
			</g>
		</g>
		<g>
			<g>
				<g>
					<g>
						<path class="st12" d="M376.6,395.5c0,0,0-0.1,0.1-0.4c0.1-0.3,0.2-0.7,0.3-1.2c0.1-0.5,0.3-1.1,0.6-1.9
							c0.1-0.4,0.3-0.7,0.4-1.1c0.2-0.4,0.4-0.8,0.6-1.2c0.8-1.7,2.1-3.7,3.7-5.7c1.6-2,3.5-4,5.7-6c2.2-1.9,4.5-3.6,6.6-4.9
							c2.2-1.3,4.2-2.4,6-3.1c0.4-0.2,0.9-0.4,1.3-0.5c0.4-0.1,0.8-0.3,1.2-0.4c0.7-0.2,1.3-0.5,1.9-0.6c0.5-0.1,0.9-0.2,1.2-0.3
							c0.3-0.1,0.4-0.1,0.4-0.1c0,0-0.1,0.1-0.4,0.2c-0.3,0.1-0.7,0.2-1.2,0.4c-0.5,0.1-1.1,0.4-1.8,0.6c-0.4,0.1-0.7,0.3-1.1,0.4
							c-0.4,0.2-0.8,0.4-1.2,0.6c-1.8,0.7-3.7,1.9-5.9,3.2c-2.1,1.4-4.4,3-6.6,4.9c-2.2,1.9-4.1,3.9-5.7,5.9c-1.6,2-2.8,3.9-3.7,5.6
							C377,393.2,376.7,395.5,376.6,395.5z"/>
					</g>
				</g>
			</g>
			<g>
				<g>
					<g>
						<path class="st12" d="M375,401.9c-0.1,0-0.2-0.8-0.1-1.7c0.1-0.9,0.3-1.6,0.4-1.6c0.1,0,0.2,0.8,0.1,1.7
							C375.3,401.2,375.1,401.9,375,401.9z"/>
					</g>
				</g>
			</g>
		</g>
	</g>
	<g>
		<g>
			<g>
				<path class="st6" d="M416.2,435.2c0,0,0.1-0.1,0.3-0.4c0.2-0.3,0.5-0.6,0.8-1c0.2-0.2,0.4-0.5,0.6-0.7c0.2-0.3,0.4-0.6,0.6-0.9
					c0.4-0.6,1-1.4,1.5-2.2c0.3-0.4,0.5-0.9,0.8-1.3c0.3-0.5,0.5-1,0.8-1.5c0.5-1,1-2.2,1.5-3.4c0.9-2.4,1.7-5.2,2.1-8.2
					c0.4-3,0.4-5.9,0.3-8.4c-0.1-1.3-0.2-2.5-0.5-3.7c-0.1-0.6-0.2-1.1-0.3-1.6c-0.1-0.5-0.3-1-0.4-1.5c-0.2-1-0.5-1.8-0.8-2.5
					c-0.1-0.4-0.2-0.7-0.4-1c-0.1-0.3-0.2-0.6-0.4-0.8c-0.2-0.5-0.3-0.9-0.5-1.2c-0.1-0.3-0.2-0.4-0.1-0.4c0,0,0.1,0.1,0.2,0.4
					c0.1,0.3,0.3,0.7,0.6,1.1c0.1,0.3,0.3,0.5,0.4,0.8c0.1,0.3,0.2,0.7,0.4,1c0.3,0.7,0.6,1.6,0.8,2.5c0.1,0.5,0.3,1,0.4,1.5
					c0.1,0.5,0.2,1.1,0.3,1.7c0.3,1.1,0.4,2.4,0.5,3.7c0.2,2.6,0.2,5.5-0.2,8.5c-0.4,3-1.2,5.8-2.2,8.3c-0.5,1.2-1,2.4-1.5,3.4
					c-0.3,0.5-0.5,1-0.8,1.5c-0.3,0.5-0.6,0.9-0.8,1.3c-0.5,0.9-1.1,1.6-1.5,2.2c-0.2,0.3-0.4,0.6-0.7,0.9c-0.2,0.2-0.4,0.5-0.6,0.7
					c-0.3,0.4-0.6,0.7-0.9,0.9C416.3,435.1,416.2,435.3,416.2,435.2z"/>
			</g>
		</g>
	</g>
	<g>
		<g>
			<g>
				<path class="st6" d="M447.6,395.5c-0.1,0.1-1.2-0.8-3.2-1.9c-1-0.5-2.3-1.1-3.7-1.6c-1.4-0.5-3-0.9-4.8-1.2
					c-1.7-0.2-3.4-0.3-4.9-0.2c-1.5,0.1-2.9,0.3-4,0.5c-2.2,0.5-3.6,1-3.6,0.9c0,0,0.3-0.2,0.9-0.4c0.3-0.1,0.7-0.3,1.1-0.4
					c0.4-0.1,0.9-0.3,1.5-0.4c1.1-0.3,2.5-0.5,4-0.6c1.5-0.1,3.2,0,5,0.2c1.8,0.3,3.4,0.7,4.8,1.2c1.4,0.5,2.7,1.1,3.7,1.7
					c0.5,0.3,0.9,0.6,1.3,0.8c0.4,0.2,0.7,0.5,1,0.7C447.4,395.2,447.7,395.4,447.6,395.5z"/>
			</g>
		</g>
	</g>
	<g>
		<g>
			<g>
				<path class="st6" d="M419.2,370.8c0,0,0.2,0.2,0.4,0.6c0.2,0.4,0.6,1.1,0.9,1.9c0.7,1.6,1.3,4,1.5,6.7c0.2,2.7-0.1,5.1-0.5,6.8
					c-0.2,0.9-0.4,1.5-0.6,2c-0.2,0.5-0.3,0.7-0.3,0.7c-0.1,0,0.3-1,0.6-2.7c0.3-1.7,0.6-4.1,0.4-6.7c-0.2-2.6-0.8-5-1.4-6.6
					C419.6,371.8,419.1,370.9,419.2,370.8z"/>
			</g>
		</g>
	</g>
	<g>
		<g>
			<g>
				<path class="st6" d="M385,402.4c0,0,0.3-0.4,0.9-1.1c0.3-0.4,0.7-0.8,1.2-1.2c0.5-0.5,1-1,1.6-1.5c0.3-0.3,0.7-0.5,1-0.8
					c0.4-0.3,0.7-0.5,1.1-0.8c0.8-0.6,1.7-1.1,2.6-1.7c1.9-1.1,4.1-2.1,6.5-2.8c2.4-0.7,4.8-1.1,7-1.3c1.1-0.1,2.1-0.1,3.1-0.1
					c0.5,0,1,0,1.4,0c0.4,0,0.9,0.1,1.3,0.1c0.8,0.1,1.6,0.2,2.2,0.3c0.7,0.1,1.2,0.2,1.6,0.4c0.9,0.2,1.4,0.4,1.4,0.4
					c0,0.1-2-0.5-5.3-0.8c-0.4,0-0.8-0.1-1.3-0.1c-0.4,0-0.9,0-1.4,0c-1,0-2,0.1-3.1,0.1c-2.2,0.2-4.5,0.6-6.9,1.3
					c-2.4,0.7-4.6,1.7-6.5,2.7c-0.9,0.6-1.8,1-2.6,1.6c-0.4,0.3-0.8,0.5-1.1,0.8c-0.3,0.3-0.7,0.5-1,0.8
					C386.4,400.9,385.1,402.5,385,402.4z"/>
			</g>
		</g>
	</g>
	<g>
		<g>
			<g>
				<path class="st6" d="M408.4,412.9c0-0.1,1-0.8,2.4-2.3c1.5-1.4,3.3-3.6,4.9-6.3c1.6-2.7,2.6-5.4,3.1-7.4c0.5-2,0.7-3.2,0.8-3.2
					c0,0,0,0.3-0.1,0.9c-0.1,0.6-0.2,1.4-0.4,2.4c-0.5,2-1.4,4.8-3,7.5c-1.6,2.7-3.5,4.9-5.1,6.3c-0.8,0.7-1.4,1.2-1.9,1.6
					C408.7,412.8,408.5,412.9,408.4,412.9z"/>
			</g>
		</g>
	</g>
	<g>
		<g>
			<g>
				<path class="st6" d="M428.3,382.7c0.1,0.1-1.8,1.5-3.6,3.6c-1.8,2.1-2.9,4.1-3.1,4c-0.1,0,0.8-2.2,2.7-4.3
					C426.3,383.8,428.3,382.6,428.3,382.7z"/>
			</g>
		</g>
	</g>
	<g>
		<g>
			<g>
				<path class="st6" d="M430.1,398.2c-0.1,0.1-1.3-1.6-3.3-3.1c-2-1.5-4-2-4-2.1c0-0.1,2.1,0.2,4.3,1.7
					C429.1,396.3,430.2,398.2,430.1,398.2z"/>
			</g>
		</g>
	</g>
	<g>
		<g>
			<g>
				<path class="st6" d="M407.4,377.5c0,0,0.2,0.1,0.6,0.3c0.4,0.2,1,0.6,1.6,1c1.4,0.9,3.1,2.4,4.8,4.3c1.7,1.9,3,3.8,3.7,5.2
					c0.4,0.7,0.7,1.3,0.9,1.7c0.2,0.4,0.3,0.7,0.2,0.7c-0.1,0-0.5-0.9-1.4-2.3c-0.9-1.4-2.1-3.3-3.8-5.1c-1.7-1.8-3.4-3.3-4.7-4.3
					C408.2,378.1,407.4,377.5,407.4,377.5z"/>
			</g>
		</g>
	</g>
	<g>
		<g>
			<path class="st12" d="M420.2,389.8c-1.1,0.4-1.7,1.9-1.3,3c0.4,1.1,1.8,1.7,3,1.3c1.1-0.4,1.7-1.8,1.3-2.9
				C422.8,390,421.4,389.4,420.2,389.8"/>
		</g>
	</g>
</g>
<g id="Floor">
	<g>
		<path class="st6" d="M461.5,443.9c0,0.1-103.3,0.3-230.7,0.3C103.3,444.2,0,444.1,0,443.9c0-0.1,103.3-0.3,230.8-0.3
			C358.2,443.7,461.5,443.8,461.5,443.9z"/>
	</g>
</g>
</svg>
